<svg width="20" height="18" viewBox="0 0 25 22" fill="none" xmlns="http://www.w3.org/2000/svg">
   <path d="M13.7803 11C13.7803 11.6963 13.1505 12.3333 12.2803 12.3333C11.41 12.3333 10.7803 11.6963 10.7803 11C10.7803 10.3037 11.41 9.66666 12.2803 9.66666C13.1505 9.66666 13.7803 10.3037 13.7803 11Z" fill="#97A0A8" stroke="black"/>
   <path d="M20.7803 11C20.7803 11.6963 20.1505 12.3333 19.2803 12.3333C18.41 12.3333 17.7803 11.6963 17.7803 11C17.7803 10.3037 18.41 9.66666 19.2803 9.66666C20.1505 9.66666 20.7803 10.3037 20.7803 11Z" fill="#97A0A8" stroke="black"/>
   <path d="M6.78027 11C6.78027 11.6963 6.15054 12.3333 5.28027 12.3333C4.41 12.3333 3.78027 11.6963 3.78027 11C3.78027 10.3037 4.41 9.66666 5.28027 9.66666C6.15054 9.66666 6.78027 10.3037 6.78027 11Z" fill="#97A0A8" stroke="black"/>
   </svg>
   