<svg width="18" height="16" viewBox="0 0 18 16" fill="none" xmlns="http://www.w3.org/2000/svg">
   <path d="M9.83366 0.5C10.7123 0.5 11.4321 1.1799 11.4958 2.04228L11.5003 2.16667V15.5H6.50033V2.16667C6.50033 1.28803 7.18022 0.568196 8.04261 0.504571L8.16699 0.5H9.83366ZM15.667 4.66667C16.5875 4.66667 17.3337 5.41286 17.3337 6.33333V13.8333C17.3337 14.7538 16.5875 15.5 15.667 15.5H13.167V4.66667H15.667ZM4.83366 7.16667V15.5H2.33366C1.41318 15.5 0.666992 14.7538 0.666992 13.8333V8.83333C0.666992 7.91283 1.41318 7.16667 2.33366 7.16667H4.83366Z" fill="white" fill-opacity="0.5"/>
   </svg>
   