<svg width="14" height="14" viewBox="0 0 14 14" fill="none" xmlns="http://www.w3.org/2000/svg">
   <path d="M7.7 4.36598C7.7 4.9616 8.18284 5.44444 8.77846 5.44444C9.71216 5.44444 10.2047 6.55034 9.58008 7.24436L8.39035 8.56628C7.6473 9.39189 6.3527 9.39189 5.60965 8.56628L4.41992 7.24436C3.79531 6.55035 4.28784 5.44444 5.22154 5.44444C5.81716 5.44444 6.3 4.9616 6.3 4.36598V0.7C6.3 0.313401 6.6134 0 7 0C7.3866 0 7.7 0.313401 7.7 0.7V4.36598ZM1.4 9.72222C1.4 11.2257 2.61878 12.4444 4.12222 12.4444H9.87778C11.3812 12.4444 12.6 11.2257 12.6 9.72222V7.7C12.6 7.3134 12.9134 7 13.3 7C13.6866 7 14 7.3134 14 7.7V13.2222C14 13.6518 13.6866 14 13.3 14H0.7C0.313404 14 0 13.6518 0 13.2222V7.7C0 7.3134 0.313401 7 0.7 7C1.0866 7 1.4 7.3134 1.4 7.7V9.72222Z" fill="#23262F"/>
   </svg>
   