<svg width="20" height="21" viewBox="0 0 20 21" fill="none" xmlns="http://www.w3.org/2000/svg">
   <path fill-rule="evenodd" clip-rule="evenodd" d="M16.0239 0.857117C13.7208 0.857117 11.8643 2.47654 10.0689 4.04281C8.44376 5.46032 6.9088 6.79912 5.20742 6.79912H2.38538C1.15789 6.79912 0.159424 7.85022 0.159424 9.14293V11.1237C0.159424 12.4162 1.15789 13.4673 2.38538 13.4673H2.51062V18.0562C2.51062 19.3486 3.5093 20.4 4.73679 20.4H5.6774C6.9049 20.4 7.90336 19.3486 7.90336 18.0562V14.4726C8.62209 14.9638 9.33605 15.5855 10.0682 16.2243C11.8638 17.7901 13.7204 19.41 16.0234 19.41C18.0631 19.4098 19.6606 15.3352 19.6606 10.1336C19.6606 4.93169 18.0631 0.857117 16.0239 0.857117ZM7.21388 18.0564C7.21388 18.9482 6.52462 19.6738 5.67762 19.6738H4.73701C3.88979 19.6738 3.20053 18.9482 3.20053 18.0564V13.4673H5.20742C5.89798 13.4673 6.56102 13.6907 7.21388 14.0473V18.0564ZM10.5087 15.6649C8.86108 14.2273 7.15733 12.7411 5.20742 12.7411H2.38538C1.53838 12.7411 0.849117 12.0156 0.849117 11.1237V9.14293C0.849117 8.25108 1.53838 7.52533 2.38538 7.52533H5.20721C7.15711 7.52533 8.86065 6.03892 10.5085 4.60201C11.7128 3.5516 12.9464 2.4786 14.293 1.9397C13.1492 3.48566 12.3867 6.54017 12.3867 10.1336C12.3867 13.7263 13.149 16.781 14.2926 18.3265C12.9464 17.7881 11.7128 16.7151 10.5087 15.6649ZM16.0239 18.6836C14.6005 18.6836 13.0766 15.2481 13.0766 10.1336C13.0766 5.01885 14.6003 1.5831 16.0239 1.5831C17.447 1.5831 18.971 5.01885 18.971 10.1336C18.9707 15.2481 17.447 18.6836 16.0239 18.6836Z" fill="#1F263E"/>
   </svg>
   