<svg width="20" height="21" viewBox="0 0 20 21" fill="none" xmlns="http://www.w3.org/2000/svg">
   <ellipse cx="10.085" cy="10.3397" rx="9.5465" ry="10.0868" fill="#F4F4F4"/>
   <mask id="mask0_38_178" style="mask-type:luminance" maskUnits="userSpaceOnUse" x="0" y="0" width="20" height="21">
   <ellipse cx="10.085" cy="10.3397" rx="9.5465" ry="10.0868" fill="white"/>
   </mask>
   <g mask="url(#mask0_38_178)">
   <path fill-rule="evenodd" clip-rule="evenodd" d="M8.77255 15.7702H2.04227C2.37853 16.3264 2.7661 16.8461 3.1993 17.3215H16.9692C17.4024 16.8461 17.7899 16.3264 18.1262 15.7702H8.77064H8.77255Z" fill="#FF1612"/>
   <path fill-rule="evenodd" clip-rule="evenodd" d="M15.1687 1.80405C12.0611 -0.262158 8.10738 -0.262158 4.99979 1.80405H15.1687Z" fill="#FF1612"/>
   <path fill-rule="evenodd" clip-rule="evenodd" d="M15.3864 3.35541H3.1993C2.76663 3.83211 2.37911 4.35238 2.04227 4.90877H18.1262C17.7894 4.35238 17.4018 3.83211 16.9692 3.35541L15.3864 3.35541Z" fill="#FF1612"/>
   <path fill-rule="evenodd" clip-rule="evenodd" d="M8.77255 6.46014H1.27092C1.07308 6.96285 0.914089 7.48166 0.795502 8.01149H19.373C19.2544 7.48166 19.0954 6.96285 18.8976 6.46014H8.77828L8.77255 6.46014Z" fill="#FF1612"/>
   <path fill-rule="evenodd" clip-rule="evenodd" d="M8.77255 12.6675H0.795502C0.914089 13.1973 1.07308 13.7161 1.27092 14.2188H18.8976C19.0954 13.7161 19.2544 13.1973 19.373 12.6675H8.77255V12.6675Z" fill="#FF1612"/>
   <path fill-rule="evenodd" clip-rule="evenodd" d="M4.99786 18.8729C6.51432 19.8857 8.27114 20.4242 10.0651 20.4262H10.1033C11.8973 20.4242 13.6542 19.8857 15.1706 18.8729H4.99786Z" fill="#FF1612"/>
   <path fill-rule="evenodd" clip-rule="evenodd" d="M8.77256 9.56281H0.568299C0.551115 9.81901 0.53775 10.0772 0.53775 10.3395C0.53775 10.6017 0.551115 10.8579 0.568299 11.1141H19.6002C19.6174 10.8579 19.6307 10.5997 19.6307 10.3395C19.6307 10.0792 19.6174 9.81901 19.6002 9.56281H8.77256Z" fill="#FF1612"/>
   <path fill-rule="evenodd" clip-rule="evenodd" d="M6.5597 0.964835L6.65516 0.926506C6.64179 0.880107 6.62652 0.835725 6.61316 0.791343C6.59597 0.857916 6.57879 0.906332 6.5597 0.964835Z" fill="#F4F4F4"/>
   <path fill-rule="evenodd" clip-rule="evenodd" d="M9.39499 11.1142H10.2408V0.252757H10.0842C8.9091 0.250984 7.74382 0.479444 6.64751 0.926552L6.67233 1.00523C6.67527 1.01559 6.67884 1.03315 6.68308 1.05395L6.68308 1.05398C6.69534 1.11418 6.71313 1.2016 6.73724 1.22109C6.76079 1.24011 6.84159 1.23153 6.8995 1.22539C6.92143 1.22306 6.94007 1.22109 6.95109 1.22109H7.16493L6.99118 1.35423C6.98271 1.36055 6.96774 1.36975 6.95 1.38065C6.89976 1.41153 6.82731 1.45607 6.81744 1.48738C6.80805 1.51713 6.83917 1.59069 6.86249 1.64581C6.87237 1.66916 6.88085 1.68921 6.88426 1.70122L6.89803 1.74468C6.91628 1.80223 6.93429 1.85901 6.95109 1.91707L6.77925 1.78393C6.77113 1.77737 6.75884 1.76577 6.74431 1.75205C6.70072 1.71091 6.637 1.65078 6.6055 1.65078C6.57428 1.65078 6.51248 1.70984 6.46947 1.75094C6.45462 1.76514 6.442 1.77719 6.43367 1.78393L6.26565 1.91505L6.33247 1.6992C6.3359 1.68884 6.34273 1.67238 6.35079 1.65293C6.37413 1.59662 6.40781 1.51535 6.3993 1.48536C6.39083 1.45552 6.31764 1.41025 6.26694 1.37889C6.24908 1.36784 6.23401 1.35852 6.22555 1.35221L6.05181 1.21907H6.26565C6.27666 1.21907 6.29531 1.22089 6.31723 1.22304C6.37515 1.22871 6.45595 1.23663 6.47949 1.21907C6.5024 1.20198 6.51961 1.12155 6.53245 1.06154L6.53245 1.06153L6.53245 1.06152L6.53245 1.06152L6.53245 1.06151L6.53245 1.0615L6.53245 1.06149L6.53246 1.06148L6.53246 1.06147L6.53246 1.06147L6.53246 1.06146L6.53246 1.06145L6.53246 1.06144L6.53246 1.06144L6.53247 1.06143L6.53247 1.06142L6.53247 1.06142L6.53247 1.06141L6.53247 1.0614L6.53247 1.0614L6.53247 1.06139L6.53248 1.06139L6.53248 1.06138L6.53248 1.06137L6.53248 1.06137L6.53248 1.06136C6.53782 1.03643 6.5424 1.01505 6.54631 1.00321L6.55777 0.962864C4.56704 1.80216 2.89992 3.32213 1.82271 5.28L1.83989 5.33446C1.84381 5.34629 1.84822 5.36746 1.85336 5.39216C1.86576 5.45173 1.88242 5.53178 1.90672 5.55032C1.93162 5.56932 2.01063 5.56079 2.06753 5.55465C2.08917 5.55231 2.1076 5.55032 2.11865 5.55032H2.3344L2.16256 5.68347C2.15289 5.69128 2.13473 5.70251 2.11366 5.71553L2.11365 5.71554L2.11365 5.71554L2.11363 5.71555L2.1136 5.71556L2.1136 5.71557C2.06397 5.74624 1.9982 5.78689 1.98882 5.81661C1.97891 5.84802 2.01307 5.92821 2.03685 5.98403C2.04515 6.00351 2.05219 6.02001 2.05564 6.03045C2.07243 6.0885 2.09044 6.14527 2.10869 6.2028L2.12247 6.24631L1.94872 6.11316C1.94043 6.10646 1.92776 6.09448 1.91284 6.08037C1.86937 6.03926 1.80673 5.98002 1.77689 5.98002C1.74675 5.98002 1.68212 6.0404 1.63808 6.08154C1.62352 6.09514 1.61121 6.10664 1.60314 6.11316L1.4313 6.24631C1.44809 6.18826 1.4661 6.13149 1.48435 6.07396L1.49813 6.03045C1.50147 6.01868 1.50952 5.99902 1.51892 5.97608C1.54174 5.92034 1.57251 5.84519 1.56304 5.81661V5.80451C1.12273 6.72366 0.818785 7.70888 0.661855 8.72563C0.666841 8.7561 0.679355 8.78463 0.698131 8.80834C0.721673 8.82736 0.802463 8.81879 0.860373 8.81265H0.860386H0.860397H0.86041L0.860426 8.81265C0.882337 8.81032 0.900967 8.80834 0.911973 8.80834H1.12581C1.06854 8.85273 1.01126 8.89711 0.952068 8.93947C0.935294 8.95148 0.915147 8.96413 0.894624 8.97702L0.894596 8.97704C0.842711 9.00962 0.788439 9.04371 0.780231 9.07262C0.772282 9.10061 0.801103 9.17328 0.82332 9.22931C0.833123 9.25403 0.84164 9.2755 0.845147 9.28847C0.851217 9.31092 0.863719 9.34979 0.877257 9.39188L0.877262 9.3919L0.877265 9.3919L0.877301 9.39202C0.889301 9.42933 0.90211 9.46916 0.911973 9.50231L0.740136 9.36917C0.694076 9.3252 0.645624 9.28411 0.595029 9.24611C0.557932 9.60927 0.538813 9.97424 0.53775 10.3395C0.53775 10.5998 0.551115 10.858 0.568299 11.1142H9.39499ZM8.68664 1.22915C8.69765 1.22915 8.71702 1.23098 8.73979 1.23313C8.79994 1.2388 8.88386 1.24671 8.90048 1.22915C8.9164 1.21233 8.93601 1.13414 8.95098 1.07445C8.95755 1.04825 8.96323 1.02561 8.96731 1.0133L9.03222 0.799459L9.09714 1.0133C9.10103 1.02506 9.10542 1.04608 9.11053 1.07061L9.11053 1.07062L9.11054 1.07064L9.11054 1.07065L9.11054 1.07067L9.11055 1.07068L9.11055 1.0707L9.11055 1.07071L9.11055 1.07073L9.11056 1.07074L9.11056 1.07076L9.11056 1.07077L9.11057 1.07079L9.11057 1.0708L9.11057 1.07082L9.11057 1.07084L9.11058 1.07085L9.11058 1.07087L9.11058 1.07089L9.11059 1.0709L9.11059 1.07092L9.11059 1.07093L9.11059 1.07094L9.1106 1.07096L9.1106 1.07097L9.1106 1.07099L9.11061 1.071C9.12301 1.13058 9.13967 1.21062 9.16397 1.22915C9.18889 1.24818 9.26907 1.2396 9.32653 1.23346C9.34829 1.23113 9.36679 1.22915 9.37781 1.22915H9.59165L9.4179 1.3623C9.40943 1.36862 9.39446 1.37782 9.37672 1.38872C9.32648 1.4196 9.25403 1.46414 9.24415 1.49545C9.23477 1.5252 9.26589 1.59876 9.28921 1.65388L9.28922 1.6539L9.28925 1.65398C9.29911 1.67729 9.30758 1.69729 9.31098 1.70928L9.37781 1.92514L9.20406 1.792C9.19577 1.78529 9.18311 1.77332 9.16819 1.75921L9.16817 1.7592C9.12471 1.71809 9.06207 1.65885 9.03222 1.65885C9.00209 1.65885 8.93746 1.71923 8.89342 1.76037L8.8934 1.76039L8.89332 1.76046L8.8933 1.76049C8.87878 1.77404 8.86652 1.7855 8.85848 1.792L8.68664 1.92514L8.74774 1.6992C8.75117 1.6871 8.75959 1.66665 8.76938 1.64286C8.79224 1.58733 8.82258 1.5136 8.81456 1.48536C8.80609 1.45552 8.7329 1.41025 8.68221 1.37889L8.6822 1.37889C8.66434 1.36784 8.64927 1.35852 8.64082 1.35221L8.46707 1.21907L8.68664 1.22915ZM8.73979 3.39808C8.71702 3.39575 8.69765 3.39377 8.68664 3.39377H8.4728L8.64655 3.52692C8.65527 3.53343 8.67104 3.54285 8.68965 3.55398L8.68966 3.55398C8.74027 3.58424 8.81192 3.62707 8.82029 3.65805C8.82835 3.68786 8.79765 3.76263 8.77475 3.81838L8.77474 3.81841L8.77471 3.81847C8.76509 3.8419 8.75686 3.86196 8.75347 3.8739C8.74201 3.90921 8.73103 3.94501 8.72005 3.98082C8.70907 4.01663 8.6981 4.05244 8.68664 4.08774L8.85848 3.9546C8.86773 3.9477 8.88255 3.93392 8.89996 3.91774L8.9 3.91771L8.90007 3.91765L8.90008 3.91763C8.94376 3.87705 9.00358 3.82145 9.03222 3.82145C9.06066 3.82145 9.11886 3.87624 9.16189 3.91674L9.16189 3.91675C9.17953 3.93335 9.19462 3.94756 9.20406 3.9546L9.37781 4.08774C9.36635 4.05244 9.35537 4.01664 9.3444 3.98084L9.34439 3.98082L9.34439 3.98081L9.34439 3.9808L9.34434 3.98064C9.33338 3.94489 9.32242 3.90915 9.31098 3.8739C9.3076 3.86198 9.29921 3.84179 9.28943 3.81821C9.26608 3.76197 9.23474 3.68647 9.24415 3.65805C9.25393 3.62852 9.32504 3.58496 9.37521 3.55423C9.39361 3.54296 9.40919 3.53341 9.4179 3.52692L9.59165 3.39377H9.37781C9.36679 3.39377 9.34829 3.3956 9.32653 3.39775C9.26907 3.40342 9.18889 3.41133 9.16397 3.39377C9.13961 3.37661 9.12292 3.29662 9.11051 3.23712L9.11051 3.2371L9.1105 3.23708L9.1105 3.23706C9.1054 3.21264 9.10103 3.19167 9.09714 3.17993C9.08665 3.14367 9.07569 3.10791 9.06473 3.07215L9.06468 3.07201L9.06464 3.07186C9.05367 3.0361 9.04271 3.00034 9.03222 2.96408C9.02172 3.00039 9.01074 3.0362 8.99977 3.07201C8.98879 3.10781 8.97781 3.14362 8.96731 3.17993C8.96326 3.19216 8.95763 3.2142 8.95112 3.23971C8.93613 3.29841 8.91645 3.37549 8.90048 3.39377C8.88386 3.4128 8.79994 3.40422 8.73979 3.39808ZM8.68664 5.56041C8.69765 5.56041 8.71702 5.56239 8.73979 5.56471C8.79994 5.57086 8.88386 5.57943 8.90048 5.56041C8.91638 5.54221 8.93596 5.46475 8.95092 5.40556L8.95092 5.40554C8.95752 5.37944 8.96322 5.3569 8.96731 5.34455L9.03222 5.13071L9.09714 5.34455C9.10105 5.35637 9.10546 5.37754 9.1106 5.40222L9.1106 5.40224L9.11061 5.40226C9.12301 5.46183 9.13967 5.54187 9.16397 5.56041C9.18889 5.57943 9.26907 5.57086 9.32653 5.56471C9.34829 5.56239 9.36679 5.56041 9.37781 5.56041H9.59165L9.4179 5.69355C9.40822 5.70138 9.39004 5.71261 9.36893 5.72566C9.31931 5.75632 9.25353 5.79697 9.24415 5.8267C9.23477 5.85646 9.26589 5.93001 9.28921 5.98513L9.28922 5.98515L9.28927 5.98527L9.28929 5.98532C9.29914 6.00859 9.30758 6.02856 9.31098 6.04054L9.37781 6.25639L9.20406 6.12325C9.19578 6.11656 9.18315 6.10462 9.16826 6.09054L9.16824 6.09052L9.16818 6.09046L9.16817 6.09045C9.12471 6.04935 9.06207 5.9901 9.03222 5.9901C9.00209 5.9901 8.93746 6.05049 8.89342 6.09163C8.87885 6.10523 8.86654 6.11673 8.85848 6.12325L8.68664 6.25639L8.74774 6.03045C8.75117 6.01835 8.75959 5.9979 8.76938 5.97411C8.79224 5.91858 8.82258 5.84486 8.81456 5.81661C8.80653 5.78833 8.74032 5.74715 8.69027 5.71603C8.66893 5.70275 8.65052 5.69131 8.64082 5.68347L8.46707 5.55032L8.68664 5.56041ZM8.73979 7.72933L8.73978 7.72933C8.71701 7.727 8.69765 7.72503 8.68664 7.72503L8.4728 7.71696L8.64655 7.85817C8.65527 7.86468 8.67104 7.87411 8.68966 7.88523C8.74027 7.91549 8.81192 7.95833 8.82029 7.9893C8.82815 8.01836 8.80456 8.07591 8.78157 8.13199L8.78157 8.132L8.78156 8.13201C8.77104 8.15766 8.76066 8.183 8.75347 8.20516C8.74201 8.24046 8.73103 8.27627 8.72005 8.31208C8.70907 8.34789 8.6981 8.38369 8.68664 8.41899L8.85848 8.28585C8.86774 8.27894 8.8826 8.26513 8.90005 8.24892L8.90005 8.24891L8.90008 8.24888C8.94376 8.2083 9.00358 8.1527 9.03222 8.1527C9.06066 8.1527 9.11886 8.2075 9.16189 8.248C9.17953 8.26461 9.19462 8.27881 9.20406 8.28585L9.37781 8.41899C9.35489 8.34839 9.32244 8.2455 9.31098 8.20516C9.3076 8.19324 9.29921 8.17304 9.28943 8.14946C9.26608 8.09323 9.23474 8.01773 9.24415 7.9893C9.25393 7.95978 9.32504 7.91622 9.37521 7.88548L9.37524 7.88547L9.37528 7.88544C9.39364 7.87419 9.4092 7.86466 9.4179 7.85817L9.59165 7.72503H9.37781C9.36679 7.72503 9.34829 7.72685 9.32653 7.729L9.32652 7.729C9.26906 7.73467 9.18889 7.74258 9.16397 7.72503C9.13961 7.70787 9.12292 7.62787 9.11051 7.56837L9.1105 7.56835C9.10541 7.54391 9.10103 7.52293 9.09714 7.51119C9.08668 7.47502 9.07574 7.43935 9.06481 7.40368L9.06479 7.40362L9.06476 7.40353L9.06473 7.40342L9.06468 7.40326L9.06463 7.4031L9.0646 7.40298L9.06457 7.4029L9.06455 7.40283C9.05362 7.36717 9.04268 7.3315 9.03222 7.29533C9.02172 7.33164 9.01074 7.36745 8.99977 7.40326C8.98879 7.43907 8.97781 7.47487 8.96731 7.51119C8.96326 7.52341 8.95763 7.54545 8.95112 7.57096C8.93613 7.62966 8.91645 7.70675 8.90048 7.72503C8.88386 7.74405 8.79994 7.73548 8.73979 7.72933ZM8.68664 9.89166C8.69765 9.89166 8.71702 9.89364 8.73979 9.89597C8.79994 9.90211 8.88386 9.91068 8.90048 9.89166C8.91638 9.87346 8.93596 9.796 8.95092 9.73681L8.95092 9.73679C8.95752 9.7107 8.96322 9.68815 8.96731 9.6758L9.03222 9.46197L9.09714 9.6758C9.10105 9.68762 9.10546 9.70879 9.1106 9.73347L9.1106 9.7335L9.11061 9.73351L9.11061 9.73354C9.12301 9.79311 9.13967 9.87313 9.16397 9.89166C9.18889 9.91068 9.26906 9.90211 9.32652 9.89597L9.32653 9.89597H9.32654C9.3483 9.89364 9.3668 9.89166 9.37781 9.89166H9.59165L9.4179 10.0228C9.40822 10.0306 9.39003 10.0419 9.36893 10.0549L9.36892 10.0549C9.3193 10.0856 9.25353 10.1262 9.24415 10.1559C9.23477 10.1857 9.26589 10.2592 9.28921 10.3144L9.28922 10.3144L9.28925 10.3145L9.28926 10.3145C9.29912 10.3378 9.30758 10.3578 9.31098 10.3698L9.37781 10.5856L9.20406 10.4525C9.19576 10.4458 9.1831 10.4338 9.16817 10.4197C9.12471 10.3786 9.06207 10.3193 9.03222 10.3193C9.00209 10.3193 8.93746 10.3797 8.89342 10.4209C8.87885 10.4345 8.86654 10.446 8.85848 10.4525L8.68664 10.5856L8.74774 10.3617C8.75117 10.3496 8.75959 10.3292 8.76938 10.3054C8.79224 10.2498 8.82258 10.1761 8.81456 10.1479C8.80653 10.1196 8.74032 10.0784 8.69027 10.0473L8.69025 10.0473C8.66891 10.034 8.65052 10.0226 8.64082 10.0147L8.46707 9.88359L8.68664 9.89166ZM7.52933 2.30669C7.50757 2.30436 7.48907 2.30239 7.47805 2.30239L7.26421 2.29835L7.43605 2.4315C7.44443 2.4374 7.45826 2.4457 7.47457 2.45549L7.4746 2.45551L7.47461 2.45552L7.47461 2.45552C7.52521 2.48589 7.59969 2.5306 7.6098 2.56262C7.61976 2.5942 7.58518 2.67619 7.56138 2.73261C7.55325 2.7519 7.54637 2.7682 7.54297 2.77848L7.47805 2.99232L7.64989 2.85917C7.65916 2.85226 7.67404 2.83844 7.69149 2.82221L7.6915 2.82221C7.73517 2.78163 7.79499 2.72603 7.82364 2.72603C7.85207 2.72603 7.91028 2.78082 7.9533 2.82132C7.97095 2.83793 7.98604 2.85213 7.99547 2.85917L8.16922 2.99232C8.14631 2.92171 8.1234 2.84909 8.10239 2.77848C8.09903 2.76832 8.0924 2.75216 8.08454 2.733L8.08452 2.73295L8.08449 2.73288L8.08448 2.73287C8.06113 2.67596 8.027 2.59279 8.03557 2.56262C8.04424 2.53208 8.11967 2.4865 8.17072 2.45566L8.17072 2.45565L8.17077 2.45563C8.18713 2.44574 8.20098 2.43737 8.20932 2.4315L8.38115 2.29835H8.16731C8.1563 2.29835 8.13765 2.30033 8.11572 2.30266C8.05781 2.3088 7.97701 2.31737 7.95347 2.29835C7.92935 2.27887 7.91156 2.19144 7.89931 2.13125L7.8993 2.13122C7.89507 2.11041 7.8915 2.09286 7.88855 2.08249C7.86564 2.00987 7.84464 1.93926 7.82364 1.86664L7.75681 2.08653C7.75385 2.09695 7.75038 2.11464 7.74627 2.1356C7.73447 2.19579 7.71739 2.28293 7.6919 2.30239C7.66697 2.32141 7.58679 2.31283 7.52933 2.30669ZM7.52932 4.47332L7.52933 4.47333C7.58679 4.47947 7.66697 4.48804 7.6919 4.46902C7.71745 4.44952 7.73456 4.36309 7.74636 4.30346C7.75043 4.2829 7.75387 4.26553 7.75681 4.25518L7.82364 4.03932C7.84464 4.11195 7.86564 4.18256 7.88855 4.25518C7.89148 4.26548 7.89502 4.28287 7.89922 4.30346L7.89922 4.30347C7.91148 4.36358 7.9293 4.45099 7.95347 4.46902C7.97701 4.48658 8.05781 4.47867 8.11572 4.47299H8.11572H8.11573C8.13765 4.47085 8.1563 4.46902 8.16731 4.46902H8.38115L8.20932 4.60015C8.19978 4.60743 8.18303 4.61782 8.16356 4.62989L8.16356 4.62989C8.1129 4.66131 8.04385 4.70415 8.03557 4.73329C8.02705 4.76329 8.06074 4.84456 8.08408 4.90087C8.09214 4.92031 8.09896 4.93678 8.10239 4.94713C8.11918 5.00518 8.13719 5.06193 8.15544 5.11946L8.15544 5.11948L8.16922 5.16299L7.99547 5.02984C7.98718 5.02314 7.97451 5.01116 7.95959 4.99705C7.91613 4.95594 7.85348 4.8967 7.82364 4.8967C7.79351 4.8967 7.72887 4.95708 7.68483 4.99822C7.67027 5.01183 7.65796 5.02333 7.64989 5.02984L7.47805 5.16299C7.48855 5.12668 7.49953 5.09087 7.51051 5.05506C7.52149 5.01925 7.53247 4.98345 7.54297 4.94713C7.54643 4.9367 7.55346 4.92019 7.56176 4.90071C7.58554 4.84489 7.6197 4.7647 7.6098 4.73329C7.60014 4.70269 7.53171 4.66051 7.4815 4.62956L7.48148 4.62955C7.46219 4.61766 7.44559 4.60743 7.43605 4.60015L7.26421 4.46902H7.47805C7.48905 4.46902 7.50752 4.47099 7.52925 4.47332L7.52932 4.47332ZM7.52933 6.63963H7.52932C7.50757 6.63748 7.48907 6.63566 7.47805 6.63566H7.26421L7.43605 6.7688C7.44398 6.77438 7.45678 6.78233 7.47195 6.79175L7.47196 6.79175C7.52256 6.82315 7.59951 6.87091 7.6098 6.90195C7.61971 6.93188 7.58549 7.0129 7.5617 7.0692L7.5617 7.0692L7.56167 7.06926C7.55341 7.08882 7.54641 7.10538 7.54297 7.11579C7.53247 7.1521 7.52149 7.18791 7.51051 7.22371C7.49953 7.25952 7.48855 7.29533 7.47805 7.33164L7.64989 7.1985C7.65796 7.19198 7.67027 7.18048 7.68483 7.16687C7.72887 7.12573 7.79351 7.06535 7.82364 7.06535C7.85348 7.06535 7.91613 7.1246 7.95959 7.1657C7.97451 7.17982 7.98718 7.19179 7.99547 7.1985L8.16922 7.33164L8.15544 7.28812C8.13719 7.23059 8.11918 7.17383 8.10239 7.11579C8.09896 7.10543 8.09213 7.08909 8.08407 7.0698L8.08405 7.06975L8.08403 7.06969L8.08402 7.06967L8.08402 7.06966C8.06068 7.01383 8.02706 6.93341 8.03557 6.90195C8.04432 6.86958 8.12104 6.82309 8.1721 6.79215C8.18788 6.78259 8.2012 6.77452 8.20932 6.7688L8.38115 6.63566H8.16731C8.15631 6.63566 8.13771 6.63763 8.11582 6.63995L8.11581 6.63995H8.11581L8.11573 6.63996L8.11572 6.63996C8.05781 6.64611 7.97701 6.65468 7.95347 6.63566C7.92935 6.61617 7.91156 6.52875 7.89931 6.46855L7.8993 6.46853L7.89929 6.46846L7.89928 6.4684L7.89928 6.46839C7.89505 6.44764 7.89149 6.43014 7.88855 6.4198C7.86564 6.34718 7.84464 6.27657 7.82364 6.20394L7.75681 6.4198C7.75385 6.43023 7.75038 6.44808 7.74626 6.46923C7.73446 6.52989 7.71738 6.61771 7.6919 6.63566C7.66697 6.65322 7.58679 6.6453 7.52933 6.63963ZM7.52932 8.80458H7.52933C7.58679 8.81072 7.66697 8.8193 7.6919 8.80027C7.71745 8.78077 7.73456 8.69434 7.74636 8.63472C7.75043 8.61415 7.75387 8.59678 7.75681 8.58643C7.76668 8.55515 7.7762 8.52386 7.78566 8.49274C7.79817 8.45161 7.8106 8.41077 7.82364 8.37058L7.83865 8.42129L7.83866 8.42131L7.83866 8.42133L7.83873 8.42156C7.85479 8.47592 7.87112 8.53118 7.88855 8.58643C7.89148 8.59673 7.89502 8.61412 7.89922 8.63472C7.91147 8.69483 7.92929 8.78224 7.95347 8.80027C7.97701 8.81783 8.05781 8.80992 8.11572 8.80425C8.13765 8.8021 8.1563 8.80027 8.16731 8.80027H8.38115L8.20932 8.9314C8.19978 8.93868 8.18302 8.94907 8.16356 8.96115C8.1129 8.99257 8.04384 9.0354 8.03557 9.06455C8.02724 9.09387 8.05926 9.17222 8.08251 9.2291C8.09124 9.25048 8.09874 9.26883 8.10239 9.2804L8.12087 9.33997C8.13554 9.38749 8.15405 9.4475 8.16922 9.49424L7.99547 9.3611C7.98605 9.35407 7.97099 9.33989 7.95338 9.32332L7.95333 9.32327L7.95332 9.32326L7.9533 9.32325C7.91028 9.28274 7.85207 9.22795 7.82364 9.22795C7.79499 9.22795 7.73517 9.28355 7.6915 9.32413C7.67404 9.34036 7.65916 9.35418 7.64989 9.3611L7.47805 9.49424L7.54297 9.2804C7.54662 9.26882 7.55427 9.25046 7.56319 9.22906L7.5632 9.22903L7.5632 9.22901L7.56321 9.229C7.5869 9.17212 7.6195 9.09385 7.6098 9.06455C7.60014 9.0354 7.53168 8.99256 7.48147 8.96114L7.48144 8.96112C7.46217 8.94906 7.44558 8.93868 7.43605 8.9314L7.26421 8.80027H7.47805C7.48904 8.80027 7.50747 8.80224 7.52915 8.80456L7.5293 8.80458L7.52932 8.80458ZM2.1136 10.0428L2.11362 10.0428C2.13471 10.0297 2.15288 10.0185 2.16256 10.0107L2.3344 9.87956H2.12056C2.10951 9.87956 2.09108 9.88155 2.06944 9.88388C2.01254 9.89003 1.93353 9.89856 1.90863 9.87956C1.88433 9.86102 1.86767 9.78097 1.85527 9.72139C1.85013 9.6967 1.84572 9.67552 1.8418 9.6637L1.77689 9.44986C1.76543 9.48516 1.75445 9.52097 1.74347 9.55678C1.73249 9.59259 1.72152 9.6284 1.71006 9.6637C1.7071 9.67412 1.70363 9.6918 1.69953 9.71275L1.69952 9.71276L1.69952 9.71277C1.68772 9.77296 1.67063 9.8601 1.64514 9.87956C1.62022 9.89858 1.54004 9.89001 1.48258 9.88386H1.48257H1.48255L1.48254 9.88386L1.48239 9.88384H1.48238H1.48236L1.48235 9.88384L1.4822 9.88382H1.48219H1.48217L1.48216 9.88382L1.48201 9.8838H1.482H1.48199H1.48198H1.48197C1.46047 9.88151 1.44221 9.87956 1.4313 9.87956H1.21746L1.39121 10.0107C1.4008 10.0184 1.41858 10.0297 1.4392 10.0428L1.43921 10.0428L1.43925 10.0428L1.43926 10.0428L1.43927 10.0428L1.43927 10.0429L1.43928 10.0429L1.43929 10.0429L1.43931 10.0429L1.43933 10.0429C1.48845 10.0741 1.55364 10.1154 1.56304 10.1438C1.57251 10.1724 1.54174 10.2476 1.51892 10.3033C1.50952 10.3262 1.50147 10.3459 1.49813 10.3577L1.48435 10.4012C1.4661 10.4587 1.44809 10.5155 1.4313 10.5735L1.60314 10.4404C1.61121 10.4339 1.62352 10.4224 1.63808 10.4088C1.68212 10.3676 1.74675 10.3072 1.77689 10.3072C1.80673 10.3072 1.86937 10.3665 1.91283 10.4076L1.91284 10.4076C1.92776 10.4217 1.94043 10.4337 1.94872 10.4404L2.12247 10.5735L2.10869 10.53C2.09044 10.4725 2.07243 10.4157 2.05564 10.3577C2.05219 10.3472 2.04515 10.3307 2.03685 10.3112C2.01307 10.2554 1.97891 10.1752 1.98882 10.1438C1.9982 10.1141 2.06397 10.0735 2.1136 10.0428ZM2.11989 7.87337L2.11988 7.87338L2.11987 7.87338L2.11987 7.87338C2.0697 7.90412 1.9986 7.94767 1.98882 7.97719C1.97885 8.00729 2.0135 8.09014 2.03729 8.14705C2.0454 8.16643 2.05225 8.1828 2.05564 8.19305C2.06195 8.21209 2.07208 8.24504 2.08343 8.28196C2.09613 8.32329 2.11037 8.36959 2.12247 8.40689L1.94872 8.27375C1.93928 8.26671 1.92419 8.2525 1.90655 8.23589C1.86353 8.19539 1.80532 8.1406 1.77689 8.1406C1.74824 8.1406 1.68842 8.1962 1.64474 8.23678C1.62729 8.25301 1.61241 8.26683 1.60314 8.27375L1.4313 8.40689C1.4523 8.33628 1.47522 8.26366 1.49813 8.19305C1.5051 8.17155 1.51509 8.14706 1.52523 8.12219L1.52523 8.12219L1.52524 8.12218L1.52524 8.12217C1.54839 8.06538 1.57234 8.00666 1.56304 7.97719C1.55321 7.94603 1.4824 7.90285 1.43274 7.87256C1.4149 7.86168 1.39978 7.85246 1.39121 7.84607L1.21746 7.71696H1.4313C1.4423 7.71696 1.46075 7.71893 1.48246 7.72125L1.48247 7.72125H1.48247H1.48248H1.48249H1.48249H1.48249L1.48257 7.72126L1.48258 7.72126C1.54004 7.72741 1.62022 7.73598 1.64514 7.71696C1.6707 7.69745 1.68781 7.61102 1.69961 7.5514C1.70368 7.53084 1.70712 7.51346 1.71006 7.50312L1.77689 7.28726C1.78738 7.32356 1.79836 7.35936 1.80934 7.39516L1.80934 7.39519L1.80935 7.39521C1.82033 7.43101 1.8313 7.46681 1.8418 7.50312C1.84569 7.51486 1.85007 7.53585 1.85517 7.56029L1.85517 7.5603L1.85517 7.5603C1.86758 7.6198 1.88427 7.6998 1.90863 7.71696C1.93353 7.7345 2.01254 7.72662 2.06944 7.72095C2.09108 7.71879 2.10951 7.71696 2.12056 7.71696H2.3344L2.16256 7.84607C2.15386 7.85256 2.13828 7.8621 2.11989 7.87337ZM6.31724 3.39001C6.29531 3.38768 6.27666 3.3857 6.26565 3.3857L6.05181 3.39176L6.22555 3.5249C6.23427 3.5314 6.25003 3.54082 6.26862 3.55194L6.26866 3.55196L6.26866 3.55196C6.31927 3.58222 6.39092 3.62505 6.3993 3.65603C6.40786 3.68767 6.37381 3.76995 6.35046 3.82639C6.34254 3.84551 6.33586 3.86167 6.33247 3.87188C6.32102 3.90719 6.31004 3.943 6.29906 3.97881L6.29906 3.97882L6.29905 3.97883L6.29905 3.97884L6.29904 3.97885L6.29904 3.97887L6.29903 3.97888L6.29903 3.97889L6.29903 3.9789L6.29902 3.97892L6.29902 3.97893L6.29901 3.97894L6.29901 3.97895L6.299 3.97896L6.299 3.97898C6.28804 4.01473 6.27708 4.05048 6.26565 4.08572L6.43939 3.94653C6.44881 3.93951 6.46368 3.92536 6.48108 3.90881C6.52367 3.8683 6.58141 3.81338 6.61123 3.81338C6.64126 3.81338 6.70058 3.86907 6.74381 3.90966C6.76105 3.92584 6.77573 3.93963 6.78498 3.94653L6.95681 4.07967C6.93581 4.00906 6.9129 3.93644 6.88999 3.86583C6.88661 3.85391 6.87822 3.83372 6.86843 3.81014C6.84509 3.75391 6.81375 3.6784 6.82316 3.64998C6.83294 3.62045 6.90405 3.57689 6.95422 3.54616C6.97262 3.53489 6.9882 3.52534 6.99691 3.51885L7.17066 3.3857H6.95681C6.94581 3.3857 6.92719 3.38753 6.90528 3.38967L6.90527 3.38967L6.90523 3.38968L6.90523 3.38968C6.84732 3.39535 6.76652 3.40326 6.74297 3.3857C6.7188 3.36767 6.70098 3.28026 6.68872 3.22015L6.68872 3.22014C6.68453 3.19955 6.68098 3.18216 6.67806 3.17186L6.61123 2.95601C6.60073 2.99232 6.58975 3.02813 6.57877 3.06394C6.56779 3.09974 6.55682 3.13555 6.54632 3.17186C6.54241 3.18366 6.53785 3.20461 6.53253 3.229L6.53253 3.22903L6.53252 3.22905C6.51968 3.28804 6.50245 3.36715 6.47949 3.3857C6.45595 3.40473 6.37515 3.39615 6.31724 3.39001ZM6.31723 5.55664L6.31724 5.55664C6.37515 5.56279 6.45595 5.57136 6.47949 5.55234C6.50239 5.53383 6.51959 5.45406 6.53243 5.39452C6.53778 5.36968 6.54238 5.34836 6.54632 5.33648L6.61123 5.12264C6.62269 5.15795 6.63367 5.19376 6.64465 5.22957L6.64466 5.22963C6.65564 5.26541 6.66661 5.3012 6.67806 5.33648C6.68623 5.36168 6.69271 5.39305 6.69913 5.42417L6.69913 5.42417L6.69913 5.42418L6.69913 5.42419L6.69914 5.42419L6.69914 5.4242L6.69914 5.4242C6.71071 5.48025 6.7221 5.53548 6.74297 5.55234C6.76652 5.57136 6.84732 5.56279 6.90523 5.55664L6.90523 5.55664L6.90531 5.55663H6.90531L6.90532 5.55663C6.92721 5.55431 6.94582 5.55234 6.95681 5.55234H7.17066L6.99691 5.68548C6.98723 5.69331 6.96904 5.70454 6.94794 5.71758L6.94794 5.71759L6.94793 5.71759L6.94793 5.71759L6.94792 5.7176C6.8983 5.74827 6.83254 5.78891 6.82316 5.81863C6.81378 5.84839 6.8449 5.92194 6.86822 5.97707C6.8781 6.00042 6.88658 6.02046 6.88999 6.03247L6.90377 6.07598L6.90377 6.076C6.92202 6.13352 6.94003 6.19028 6.95681 6.24832L6.78498 6.11518C6.77686 6.10862 6.76457 6.09702 6.75003 6.0833C6.70645 6.04217 6.64273 5.98203 6.61123 5.98203C6.58001 5.98203 6.51821 6.04109 6.4752 6.08219L6.47519 6.08221C6.46033 6.0964 6.44773 6.10845 6.43939 6.11518L6.26565 6.24832L6.33247 6.03247C6.3359 6.02211 6.34273 6.00565 6.35079 5.98621L6.35079 5.9862C6.37413 5.92989 6.40782 5.84862 6.3993 5.81863C6.39127 5.79034 6.32506 5.74917 6.275 5.71804L6.27499 5.71803C6.25365 5.70476 6.23525 5.69332 6.22555 5.68548L6.05181 5.55234H6.26565C6.27665 5.55234 6.29525 5.55431 6.31714 5.55663L6.31715 5.55663H6.31715L6.31723 5.55664ZM6.31724 7.72126L6.31723 7.72126L6.31715 7.72125H6.31715L6.31714 7.72125C6.29525 7.71893 6.27665 7.71696 6.26565 7.71696H6.05372L6.22555 7.8501C6.23428 7.85661 6.25005 7.86604 6.26866 7.87717C6.31928 7.90742 6.39092 7.95026 6.3993 7.98123C6.40716 8.01029 6.38356 8.06784 6.36058 8.12391C6.35006 8.14957 6.33967 8.17492 6.33247 8.19709C6.32102 8.23239 6.31004 8.2682 6.29906 8.30401C6.28808 8.33982 6.2771 8.37562 6.26565 8.41093L6.43939 8.27778C6.44881 8.27076 6.46368 8.25662 6.48108 8.24007C6.52367 8.19955 6.58141 8.14464 6.61123 8.14464C6.64126 8.14464 6.70058 8.20033 6.74381 8.24092C6.76105 8.2571 6.77573 8.27088 6.78498 8.27778L6.95681 8.41093C6.9461 8.3749 6.93191 8.33048 6.91905 8.29024L6.91904 8.29022L6.91897 8.29L6.91897 8.28999C6.90666 8.25146 6.89559 8.2168 6.88999 8.19709C6.88661 8.18517 6.87822 8.16498 6.86844 8.14141L6.86844 8.1414C6.84509 8.08516 6.81375 8.00966 6.82316 7.98123C6.83294 7.95171 6.90405 7.90815 6.95422 7.87741C6.97262 7.86614 6.9882 7.8566 6.99691 7.8501L7.17066 7.71696H6.95681C6.9458 7.71696 6.92716 7.71878 6.90523 7.72093H6.90523C6.84732 7.7266 6.76652 7.73452 6.74297 7.71696C6.7188 7.69893 6.70098 7.61152 6.68873 7.5514L6.68872 7.5514C6.68453 7.5308 6.68098 7.51341 6.67806 7.50312L6.61123 7.28726C6.60073 7.32356 6.58976 7.35936 6.57878 7.39516L6.57877 7.39519L6.57877 7.39521C6.56779 7.43101 6.55681 7.46681 6.54632 7.50312C6.54241 7.51492 6.53784 7.53588 6.53253 7.56028L6.53252 7.5603L6.53252 7.5603C6.51968 7.6193 6.50245 7.69841 6.47949 7.71696C6.45595 7.73598 6.37515 7.72741 6.31724 7.72126ZM6.31722 9.8879H6.31724C6.37515 9.89404 6.45595 9.90261 6.47949 9.88359C6.50239 9.86509 6.51959 9.78531 6.53243 9.72577C6.53778 9.70093 6.54238 9.67961 6.54632 9.66774L6.61123 9.4539C6.62269 9.4892 6.63367 9.52501 6.64465 9.56083L6.64467 9.56091C6.65564 9.59668 6.66661 9.63246 6.67806 9.66774C6.681 9.6781 6.68458 9.69567 6.68881 9.71649C6.70106 9.77668 6.71886 9.86411 6.74297 9.88359C6.76652 9.90261 6.84732 9.89404 6.90523 9.8879H6.90524C6.92716 9.88557 6.9458 9.88359 6.95681 9.88359H7.17066L6.99691 10.0147C6.98724 10.0225 6.96909 10.0338 6.94802 10.0468L6.94798 10.0468L6.94797 10.0468L6.94794 10.0468C6.89832 10.0775 6.83254 10.1181 6.82316 10.1479C6.81378 10.1776 6.8449 10.2512 6.86822 10.3063L6.86822 10.3063L6.86825 10.3064C6.87812 10.3297 6.88658 10.3497 6.88999 10.3617L6.90376 10.4052L6.90377 10.4052C6.92202 10.4627 6.94003 10.5195 6.95681 10.5776L6.78498 10.4444C6.77686 10.4379 6.76457 10.4263 6.75003 10.4125L6.75002 10.4125C6.70644 10.3714 6.64273 10.3113 6.61123 10.3113C6.58002 10.3113 6.51823 10.3703 6.47522 10.4114L6.47521 10.4114L6.47521 10.4114C6.46035 10.4256 6.44773 10.4377 6.43939 10.4444L6.26565 10.5776L6.33247 10.3617C6.3359 10.3513 6.34273 10.3349 6.35079 10.3154C6.37413 10.2591 6.40782 10.1779 6.3993 10.1479C6.39127 10.1196 6.32506 10.0784 6.275 10.0473C6.25366 10.034 6.23526 10.0226 6.22555 10.0147C6.1931 9.98849 6.111 9.92596 6.05181 9.88359H6.26565C6.27666 9.88359 6.2953 9.88557 6.31722 9.8879ZM5.11056 2.30669C5.08863 2.30436 5.06998 2.30239 5.05897 2.30239L4.84513 2.29835L5.01888 2.4315C5.02745 2.43789 5.04256 2.4471 5.06039 2.45798L5.0604 2.45799L5.06041 2.45799C5.11007 2.48828 5.18088 2.53146 5.19071 2.56262C5.20022 2.59278 5.16911 2.66892 5.14626 2.72486L5.14625 2.72487L5.14623 2.72492C5.13698 2.74755 5.12909 2.76686 5.1258 2.77848C5.10288 2.84909 5.07997 2.92171 5.05897 2.99232L5.23081 2.85917C5.24008 2.85226 5.25495 2.83844 5.27241 2.82221L5.27241 2.82221C5.31608 2.78163 5.37591 2.72603 5.40455 2.72603C5.43299 2.72603 5.4912 2.78082 5.53422 2.82132C5.55186 2.83793 5.56695 2.85213 5.57639 2.85917L5.75014 2.99232C5.73868 2.95702 5.7277 2.92121 5.71672 2.8854C5.70575 2.84959 5.69477 2.81378 5.68331 2.77848C5.67992 2.76823 5.67307 2.75186 5.66496 2.73247C5.64117 2.67557 5.60652 2.59272 5.61649 2.56262C5.62627 2.5331 5.69738 2.48954 5.74754 2.45881C5.76594 2.44754 5.78152 2.43799 5.79023 2.4315L5.96398 2.29835H5.75014C5.73912 2.29835 5.72062 2.30033 5.69886 2.30266C5.6414 2.3088 5.56122 2.31737 5.5363 2.29835C5.512 2.27981 5.49534 2.19976 5.48293 2.14019C5.47779 2.11549 5.47339 2.09432 5.46947 2.08249C5.45897 2.04618 5.44799 2.01037 5.43701 1.97457C5.42603 1.93876 5.41506 1.90295 5.40455 1.86664L5.33773 2.08653C5.33479 2.09689 5.33121 2.11445 5.32698 2.13525L5.32697 2.13528C5.31472 2.19548 5.29693 2.2829 5.27281 2.30239C5.24927 2.32141 5.16847 2.31283 5.11056 2.30669ZM5.11055 4.47332L5.11056 4.47333C5.16847 4.47947 5.24927 4.48804 5.27281 4.46902C5.297 4.44948 5.31482 4.36272 5.32708 4.30308L5.32708 4.30306C5.33127 4.28268 5.33481 4.26546 5.33773 4.25518L5.40455 4.03932C5.41505 4.07564 5.42603 4.11144 5.43701 4.14725C5.44799 4.18306 5.45897 4.21887 5.46947 4.25518C5.47336 4.26693 5.47774 4.28792 5.48284 4.31237C5.49525 4.37187 5.51194 4.45186 5.5363 4.46902C5.56122 4.48658 5.64139 4.47867 5.69886 4.47299H5.69886H5.69887C5.72062 4.47085 5.73913 4.46902 5.75014 4.46902H5.96398L5.79023 4.60015C5.7805 4.60801 5.76219 4.6195 5.74095 4.63282C5.69136 4.66394 5.62584 4.70504 5.61649 4.73329C5.60657 4.76323 5.64079 4.84424 5.66458 4.90054L5.66458 4.90054C5.67285 4.92013 5.67986 4.93672 5.68331 4.94713L5.75014 5.16299L5.57639 5.02984C5.56809 5.02314 5.55543 5.01116 5.54051 4.99705C5.49704 4.95594 5.4344 4.8967 5.40455 4.8967C5.37442 4.8967 5.30979 4.95708 5.26575 4.99822C5.25118 5.01183 5.23887 5.02333 5.23081 5.02984L5.05897 5.16299C5.07576 5.10493 5.09377 5.04816 5.11203 4.99061L5.1258 4.94713C5.12913 4.93539 5.13716 4.91594 5.14654 4.89324C5.16937 4.83795 5.20019 4.76332 5.19071 4.73329C5.18129 4.70342 5.11584 4.6625 5.06668 4.63178L5.06668 4.63178L5.06667 4.63177L5.06667 4.63177C5.04613 4.61893 5.02844 4.60788 5.01888 4.60015C5.00202 4.58653 4.97127 4.56367 4.93759 4.53862C4.90639 4.51543 4.87267 4.49036 4.84513 4.46902H5.05897C5.06997 4.46902 5.08857 4.47099 5.11046 4.47331L5.11047 4.47332H5.11047L5.11055 4.47332ZM5.11056 6.63963H5.11055C5.08863 6.63748 5.06998 6.63566 5.05897 6.63566H4.84513L5.01888 6.7688C5.02714 6.77497 5.04149 6.78402 5.05849 6.79475C5.10823 6.82613 5.18075 6.87188 5.19071 6.90195C5.20018 6.93053 5.16941 7.00567 5.14658 7.06141L5.14658 7.06141C5.13719 7.08436 5.12914 7.10402 5.1258 7.11579L5.11203 7.15927C5.09377 7.21681 5.07576 7.27358 5.05897 7.33164L5.23081 7.1985C5.23887 7.19198 5.25118 7.18048 5.26575 7.16687C5.30979 7.12573 5.37442 7.06535 5.40455 7.06535C5.4344 7.06535 5.49704 7.1246 5.54051 7.1657C5.55543 7.17982 5.56809 7.19179 5.57639 7.1985L5.75014 7.33164L5.68331 7.11579C5.67985 7.10535 5.67282 7.08884 5.66452 7.06936L5.66452 7.06935L5.66452 7.06935C5.64074 7.01353 5.60658 6.93335 5.61649 6.90195C5.62636 6.87064 5.69881 6.82611 5.74905 6.79522L5.74906 6.79522L5.74907 6.79521L5.74908 6.79521C5.76681 6.78431 5.78177 6.77512 5.79023 6.7688L5.96398 6.63566H5.75014C5.73914 6.63566 5.72067 6.63763 5.69894 6.63995L5.69887 6.63996L5.69886 6.63996C5.6414 6.64611 5.56122 6.65468 5.5363 6.63566C5.512 6.61712 5.49534 6.53707 5.48293 6.47749C5.47779 6.4528 5.47339 6.43162 5.46947 6.4198C5.45897 6.38349 5.44799 6.34768 5.43701 6.31187C5.42603 6.27606 5.41506 6.24026 5.40455 6.20394L5.33773 6.4198C5.33478 6.43018 5.3312 6.44791 5.32696 6.46892C5.31471 6.52959 5.29692 6.61768 5.27281 6.63566C5.24927 6.65322 5.16847 6.6453 5.11056 6.63963ZM5.11055 8.80458H5.11056C5.16847 8.81072 5.24927 8.8193 5.27281 8.80027C5.297 8.78073 5.31482 8.69398 5.32708 8.63434C5.33127 8.61394 5.33481 8.59672 5.33773 8.58643C5.3476 8.55515 5.35711 8.52386 5.36658 8.49274C5.37909 8.45161 5.39151 8.41077 5.40455 8.37058C5.41304 8.3991 5.42184 8.42796 5.43069 8.45701L5.43072 8.45709C5.44377 8.49992 5.45696 8.54318 5.46947 8.58643C5.47336 8.59818 5.47774 8.61917 5.48284 8.64362C5.49525 8.70312 5.51194 8.78312 5.5363 8.80027C5.56122 8.81783 5.6414 8.80992 5.69886 8.80425C5.72062 8.8021 5.73912 8.80027 5.75014 8.80027H5.96398L5.79023 8.9314C5.7805 8.93926 5.76219 8.95075 5.74096 8.96407L5.74095 8.96408C5.69136 8.99519 5.62584 9.0363 5.61649 9.06455C5.60678 9.09385 5.63938 9.17212 5.66307 9.229L5.66308 9.22901L5.66308 9.22903L5.6631 9.22908L5.66312 9.22913C5.67203 9.2505 5.67966 9.26884 5.68331 9.2804L5.70179 9.33997C5.71645 9.38749 5.73497 9.4475 5.75014 9.49424L5.57639 9.3611C5.56697 9.35407 5.55191 9.33989 5.5343 9.32332L5.53425 9.32327L5.53423 9.32326L5.53422 9.32325C5.49119 9.28274 5.43299 9.22795 5.40455 9.22795C5.37591 9.22795 5.31608 9.28355 5.27241 9.32413C5.25496 9.34036 5.24008 9.35418 5.23081 9.3611L5.05897 9.49424C5.07997 9.42364 5.10288 9.35101 5.1258 9.2804C5.13275 9.25897 5.14269 9.23439 5.1528 9.20941L5.1528 9.2094L5.15281 9.20938L5.15281 9.20936C5.176 9.15204 5.20002 9.09264 5.19071 9.06455C5.1813 9.03614 5.11606 8.99474 5.06694 8.96357L5.06692 8.96356L5.06692 8.96355L5.06686 8.96352C5.04624 8.95043 5.02847 8.93915 5.01888 8.9314C5.00202 8.91779 4.97127 8.89492 4.93759 8.86988L4.9375 8.86981C4.90633 8.84664 4.87264 8.82159 4.84513 8.80027H5.05897C5.06998 8.80027 5.08862 8.80225 5.11055 8.80458ZM3.90166 3.39001C3.8799 3.38768 3.8614 3.3857 3.85038 3.3857L3.64418 3.39176L3.81602 3.5249C3.82474 3.5314 3.84035 3.54082 3.85878 3.55194C3.90895 3.5822 3.97999 3.62505 3.98976 3.65603C3.99972 3.6876 3.96515 3.76959 3.94135 3.82601C3.93322 3.8453 3.92634 3.86161 3.92294 3.87188C3.90194 3.94249 3.87902 4.01512 3.85611 4.08572L4.02986 3.95258C4.03927 3.94556 4.05414 3.93141 4.07154 3.91487L4.07154 3.91487C4.11414 3.87435 4.17187 3.81943 4.2017 3.81943C4.23173 3.81943 4.29104 3.87512 4.33428 3.91571L4.33428 3.91572C4.35151 3.9319 4.36619 3.94568 4.37544 3.95258L4.54728 4.08572L4.47473 3.86583C4.47135 3.85565 4.4647 3.83944 4.45682 3.82024L4.45682 3.82023C4.43346 3.76331 4.39934 3.68014 4.4079 3.64998C4.41657 3.61943 4.492 3.57386 4.54304 3.54301L4.54305 3.54301L4.54306 3.543L4.54306 3.543L4.54307 3.54299C4.55944 3.5331 4.5733 3.52473 4.58165 3.51885L4.75348 3.3857H4.53964C4.52864 3.3857 4.51002 3.38753 4.48811 3.38967L4.48807 3.38968L4.48807 3.38968H4.48807H4.48806H4.48806H4.48805C4.43014 3.39535 4.34934 3.40326 4.3258 3.3857C4.30163 3.36767 4.2838 3.28026 4.27155 3.22015C4.26735 3.19955 4.26381 3.18216 4.26088 3.17186L4.19406 2.95601C4.18356 2.99232 4.17258 3.02812 4.1616 3.06393C4.15062 3.09974 4.13964 3.13555 4.12914 3.17186C4.12621 3.18221 4.12277 3.19958 4.1187 3.22014L4.1187 3.22014C4.10689 3.27977 4.08978 3.3662 4.06423 3.3857C4.0393 3.40473 3.95912 3.39615 3.90166 3.39001ZM3.90165 5.55664L3.90166 5.55664C3.95912 5.56279 4.0393 5.57136 4.06423 5.55234C4.08972 5.53289 4.1068 5.44574 4.11861 5.38555C4.12271 5.36459 4.12618 5.3469 4.12914 5.33648L4.19406 5.12264C4.2055 5.15791 4.21647 5.19367 4.22743 5.22944L4.22744 5.22946L4.22745 5.22949L4.22746 5.22951L4.22746 5.22954L4.22747 5.22956C4.23845 5.26537 4.24943 5.30118 4.26088 5.33648C4.26906 5.36168 4.27554 5.39305 4.28196 5.42417L4.28196 5.42417L4.28196 5.42418L4.28196 5.42419L4.28196 5.42419L4.28196 5.4242C4.29353 5.48025 4.30493 5.53548 4.3258 5.55234C4.34934 5.57136 4.43014 5.56279 4.48805 5.55664H4.48806L4.48807 5.55664C4.50999 5.55432 4.52863 5.55234 4.53964 5.55234H4.75348L4.58165 5.68548C4.5721 5.69277 4.55534 5.70301 4.53586 5.71491C4.48521 5.74585 4.41617 5.78803 4.4079 5.81863C4.39939 5.85009 4.43301 5.93052 4.45635 5.98635C4.46444 6.00569 4.47129 6.02209 4.47473 6.03247C4.48523 6.06878 4.49621 6.10459 4.50719 6.1404C4.51816 6.17621 4.52914 6.21201 4.53964 6.24832L4.36781 6.11518C4.35969 6.10862 4.34739 6.09702 4.33286 6.0833C4.28928 6.04217 4.22556 5.98203 4.19406 5.98203C4.16284 5.98203 4.10104 6.04109 4.05803 6.08219L4.05802 6.0822C4.04317 6.09639 4.03055 6.10845 4.02222 6.11518L3.84848 6.24832L3.86225 6.20482C3.8805 6.14729 3.89851 6.09052 3.9153 6.03247C3.91875 6.02206 3.92576 6.00546 3.93403 5.98588C3.95782 5.92958 3.99204 5.84856 3.98213 5.81863C3.97277 5.79038 3.90725 5.74927 3.85766 5.71816C3.83643 5.70484 3.81811 5.69335 3.80838 5.68548L3.63654 5.55234H3.85038C3.86138 5.55234 3.87985 5.55431 3.90158 5.55663L3.90165 5.55664ZM3.90166 7.72126L3.90165 7.72126L3.90158 7.72125C3.87985 7.71893 3.86138 7.71696 3.85038 7.71696H3.64418L3.81602 7.8501C3.82473 7.8566 3.84034 7.86601 3.85876 7.87713L3.85878 7.87714L3.85878 7.87714C3.90895 7.9074 3.97999 7.95025 3.98976 7.98123C3.99854 8.00905 3.97602 8.06298 3.95358 8.11673L3.95358 8.11673C3.94185 8.14482 3.93015 8.17285 3.92294 8.19709C3.90194 8.26769 3.87902 8.34032 3.85611 8.41093L4.02986 8.27778C4.03926 8.27077 4.05411 8.25665 4.07149 8.24012L4.07154 8.24007L4.07154 8.24007L4.07155 8.24006C4.11414 8.19955 4.17187 8.14464 4.2017 8.14464C4.23173 8.14464 4.29104 8.20032 4.33427 8.24091L4.33428 8.24091L4.33428 8.24092L4.33429 8.24093L4.33432 8.24096L4.33437 8.241L4.33441 8.24104C4.35159 8.25717 4.36622 8.2709 4.37544 8.27778L4.54728 8.41093L4.47473 8.19709C4.47135 8.18691 4.4647 8.1707 4.45682 8.1515L4.45682 8.15149L4.45682 8.15148C4.43346 8.09456 4.39934 8.0114 4.4079 7.98123C4.41657 7.95068 4.492 7.90511 4.54305 7.87426L4.54305 7.87426L4.54311 7.87422L4.54316 7.8742L4.54321 7.87417C4.55952 7.86431 4.57333 7.85596 4.58165 7.8501L4.75348 7.71696H4.53964C4.52863 7.71696 4.50998 7.71878 4.48805 7.72093C4.43014 7.7266 4.34934 7.73452 4.3258 7.71696C4.30163 7.69893 4.2838 7.61151 4.27155 7.5514C4.26735 7.5308 4.26381 7.51341 4.26088 7.50312L4.19406 7.28726C4.18356 7.32357 4.17258 7.35938 4.1616 7.39518C4.15062 7.43099 4.13964 7.4668 4.12914 7.50312C4.12621 7.51346 4.12277 7.53084 4.1187 7.5514C4.10689 7.61102 4.08978 7.69746 4.06423 7.71696C4.0393 7.73598 3.95912 7.72741 3.90166 7.72126ZM3.32188 8.96004L3.32187 8.96004C3.27228 8.99116 3.20676 9.03226 3.1974 9.06051C3.18819 9.08833 3.218 9.16026 3.24116 9.21614C3.25159 9.2413 3.26067 9.26321 3.26423 9.27637C3.27569 9.31873 3.30814 9.4196 3.33105 9.49021L3.15922 9.35706C3.14855 9.34954 3.1318 9.33386 3.11252 9.3158L3.11251 9.31579L3.1125 9.31579C3.0697 9.27569 3.01443 9.22392 2.98547 9.22392C2.95565 9.22392 2.89793 9.27882 2.85533 9.31933L2.85532 9.31934L2.85532 9.31935C2.83792 9.3359 2.82305 9.35004 2.81363 9.35706L2.63989 9.49021C2.65134 9.4549 2.66232 9.4191 2.6733 9.38329C2.68428 9.34748 2.69526 9.31167 2.70671 9.27637C2.71389 9.25425 2.72426 9.22876 2.73475 9.20294C2.75776 9.14637 2.78141 9.08822 2.77354 9.06051C2.7656 9.03254 2.7035 8.9939 2.65344 8.96274L2.65343 8.96274L2.6534 8.96272C2.63127 8.94895 2.6115 8.93664 2.59979 8.92737L2.42605 8.79624H2.63798C2.64899 8.79624 2.66836 8.79822 2.69113 8.80054C2.75128 8.80669 2.8352 8.81526 2.85182 8.79624C2.86779 8.77796 2.88747 8.70088 2.90246 8.64218L2.90246 8.64217C2.90897 8.61666 2.9146 8.59462 2.91865 8.5824C2.93116 8.53912 2.94436 8.49583 2.95742 8.45298L2.95746 8.45286L2.95747 8.45282L2.95757 8.45249C2.96638 8.4236 2.97513 8.39491 2.98356 8.36654C2.992 8.39491 3.00075 8.4236 3.00955 8.45249L3.00965 8.45282L3.00967 8.45286L3.0097 8.45298C3.02277 8.49583 3.03596 8.53912 3.04848 8.5824C3.05237 8.59415 3.05675 8.61514 3.06185 8.63959C3.07426 8.69909 3.09095 8.77908 3.1153 8.79624C3.14023 8.8138 3.22041 8.80588 3.27787 8.80021C3.29963 8.79807 3.31813 8.79624 3.32915 8.79624H3.54299L3.37115 8.92737C3.36143 8.93522 3.34316 8.94668 3.32197 8.95998L3.32192 8.96001L3.32188 8.96004ZM3.32997 6.78917C3.34771 6.77827 3.36268 6.76907 3.37115 6.76275L3.54299 6.63162H3.32915C3.31815 6.63162 3.29968 6.63359 3.27795 6.63592L3.27788 6.63592L3.27787 6.63593C3.22041 6.64207 3.14023 6.65064 3.1153 6.63162C3.09101 6.61308 3.07435 6.53304 3.06194 6.47346C3.0568 6.44877 3.0524 6.42759 3.04848 6.41576C3.03798 6.37945 3.027 6.34364 3.01602 6.30784C3.00504 6.27203 2.99406 6.23622 2.98356 6.19991C2.97306 6.23622 2.96208 6.27203 2.9511 6.30784C2.94013 6.34364 2.92915 6.37945 2.91865 6.41576C2.91457 6.42808 2.90889 6.45072 2.90232 6.47692C2.88735 6.53661 2.86774 6.6148 2.85182 6.63162C2.8352 6.64918 2.75129 6.64127 2.69114 6.6356H2.69113H2.69113L2.69112 6.63559C2.66835 6.63345 2.64899 6.63162 2.63798 6.63162H2.42605L2.59979 6.76477C2.60825 6.77107 2.62332 6.7804 2.64118 6.79145C2.69187 6.8228 2.76507 6.86808 2.77354 6.89791C2.78156 6.92616 2.75121 6.99988 2.72836 7.05541C2.71857 7.0792 2.71015 7.09965 2.70671 7.11175L2.63989 7.32559C2.66459 7.30645 2.69426 7.28394 2.72262 7.26241L2.72269 7.26237C2.76007 7.234 2.79518 7.20735 2.81363 7.19245C2.82197 7.18571 2.83458 7.17366 2.84944 7.15946C2.89245 7.11836 2.95425 7.0593 2.98547 7.0593C3.01565 7.0593 3.07442 7.1145 3.11786 7.1553C3.13488 7.17129 3.14954 7.18506 3.15922 7.19245L3.33105 7.32559L3.26423 7.10973C3.26082 7.09773 3.25234 7.07768 3.24246 7.05433C3.21914 6.99921 3.18802 6.92565 3.1974 6.89589C3.20728 6.86459 3.27973 6.82005 3.32997 6.78917ZM3.32188 4.62879L3.32187 4.62879C3.27228 4.6599 3.20676 4.70101 3.1974 4.72926C3.18802 4.75757 3.21908 4.83159 3.24239 4.88716C3.2523 4.91078 3.26081 4.93106 3.26423 4.9431L3.33105 5.15895L3.15922 5.02581C3.14954 5.01843 3.13488 5.00465 3.11786 4.98867C3.07442 4.94786 3.01565 4.89266 2.98547 4.89266C2.95425 4.89266 2.89245 4.95172 2.84944 4.99282C2.83458 5.00702 2.82197 5.01907 2.81363 5.02581L2.63989 5.15895L2.70671 4.9431C2.71014 4.93103 2.71852 4.91084 2.72828 4.88733L2.72828 4.88732C2.75115 4.83224 2.78157 4.75895 2.77354 4.72926C2.76549 4.6995 2.69904 4.6588 2.64895 4.62812L2.64895 4.62811L2.64894 4.62811C2.62773 4.61511 2.60945 4.60392 2.59979 4.59611L2.42605 4.46499H2.63798C2.64899 4.46499 2.66835 4.46696 2.69112 4.46929L2.69113 4.46929C2.75128 4.47544 2.8352 4.48401 2.85182 4.46499C2.86779 4.44671 2.88747 4.36963 2.90245 4.31093L2.90246 4.31093L2.90246 4.31091C2.90897 4.2854 2.9146 4.26337 2.91865 4.25115C2.92915 4.21483 2.94013 4.17903 2.9511 4.14322C2.96208 4.10741 2.97306 4.0716 2.98356 4.03529C2.99406 4.0716 3.00504 4.10741 3.01602 4.14322C3.027 4.17903 3.03798 4.21483 3.04848 4.25115C3.05237 4.2629 3.05675 4.28389 3.06185 4.30833C3.07426 4.36784 3.09095 4.44783 3.1153 4.46499C3.14023 4.48254 3.22041 4.47463 3.27787 4.46896H3.27788C3.29963 4.46681 3.31813 4.46499 3.32915 4.46499H3.54299L3.37115 4.59611C3.36142 4.60398 3.34311 4.61546 3.32188 4.62879ZM3.63654 9.87956L3.80838 10.0107V10.0147C3.81851 10.0229 3.83793 10.0346 3.86027 10.0481C3.90952 10.0778 3.97293 10.1161 3.98213 10.1438C3.99204 10.1738 3.95782 10.2548 3.93403 10.3111C3.92576 10.3307 3.91875 10.3473 3.9153 10.3577C3.89851 10.4157 3.8805 10.4725 3.86224 10.53C3.85766 10.5445 3.85307 10.559 3.84848 10.5735L4.02222 10.4404C4.03056 10.4336 4.04317 10.4216 4.05803 10.4074C4.10104 10.3663 4.16284 10.3072 4.19406 10.3072C4.22556 10.3072 4.28927 10.3674 4.33286 10.4085C4.34739 10.4222 4.35969 10.4338 4.36781 10.4404L4.53964 10.5735C4.52914 10.5372 4.51816 10.5014 4.50719 10.4656C4.49621 10.4298 4.48523 10.394 4.47473 10.3577C4.47129 10.3473 4.46444 10.3309 4.45635 10.3116C4.43301 10.2557 4.39939 10.1753 4.4079 10.1438C4.41617 10.1132 4.48521 10.0711 4.53586 10.0401C4.55534 10.0282 4.5721 10.018 4.58165 10.0107L4.75348 9.87956H4.53964C4.52863 9.87956 4.50998 9.88154 4.48805 9.88386C4.43014 9.89001 4.34934 9.89858 4.3258 9.87956C4.30168 9.86007 4.28389 9.77265 4.27164 9.71245C4.2674 9.69163 4.26383 9.67407 4.26088 9.6637C4.24943 9.6284 4.23845 9.59259 4.22747 9.55678C4.21649 9.52097 4.20551 9.48516 4.19406 9.44986L4.12914 9.6637C4.12618 9.67412 4.12271 9.69181 4.11861 9.71277C4.1068 9.77296 4.08972 9.8601 4.06423 9.87956C4.0393 9.89858 3.95912 9.89001 3.90166 9.88386C3.8799 9.88154 3.8614 9.87956 3.85038 9.87956H3.63654Z" fill="#0437A0"/>
   <path fill-rule="evenodd" clip-rule="evenodd" d="M1.56305 5.81658C1.57641 5.85693 1.50959 5.99008 1.49813 6.03042C1.47522 6.10305 1.45231 6.17366 1.4313 6.24628L1.60314 6.11313C1.6356 6.08691 1.73488 5.97999 1.77689 5.97999C1.81889 5.97999 1.91627 6.08691 1.94873 6.11313L2.12247 6.24628C2.09956 6.17366 2.07665 6.10305 2.05565 6.03042C2.04228 5.99008 1.97546 5.85693 1.98882 5.81658C2.00219 5.77624 2.13011 5.70966 2.16257 5.68344L2.3344 5.55029H2.12056C2.08047 5.55029 1.94109 5.57652 1.90863 5.55029C1.87617 5.52407 1.85517 5.37478 1.8418 5.33444L1.82462 5.27997C1.73106 5.45144 1.63369 5.62695 1.55732 5.80246C1.55923 5.80851 1.56305 5.81255 1.56305 5.81658Z" fill="#F4F4F4"/>
   <path fill-rule="evenodd" clip-rule="evenodd" d="M6.54822 1.00519C6.53485 1.04554 6.51576 1.19482 6.48139 1.22105C6.44703 1.24727 6.30765 1.22105 6.26755 1.22105H6.05371L6.22746 1.35419C6.25992 1.3784 6.38784 1.44497 6.4012 1.48734C6.41457 1.5297 6.34774 1.66083 6.33438 1.70118L6.26564 1.91502L6.43939 1.78187C6.47185 1.75564 6.57113 1.64873 6.61123 1.64873C6.65132 1.64873 6.75251 1.75564 6.78497 1.78187L6.95681 1.91502C6.93581 1.84239 6.9129 1.77178 6.88998 1.69916C6.87853 1.65881 6.8117 1.52567 6.82316 1.48532C6.83461 1.44497 6.96445 1.37638 6.99691 1.35217L7.17065 1.21903H6.95872C6.91862 1.21903 6.76779 1.24324 6.74488 1.21903C6.72197 1.19482 6.69142 1.04352 6.67996 1.00317L6.6475 0.926514L6.55204 0.964843L6.54822 1.00519Z" fill="#F4F4F4"/>
   <path fill-rule="evenodd" clip-rule="evenodd" d="M0.740138 9.36105L0.911975 9.4942C0.890973 9.42359 0.868062 9.35096 0.84515 9.28036C0.822238 9.20975 0.766869 9.10485 0.780234 9.0645C0.793599 9.02415 0.919613 8.95758 0.952071 8.93136C0.984529 8.90513 1.06854 8.84461 1.12582 8.80023H0.919613C0.879517 8.80023 0.738229 8.82645 0.705771 8.80023C0.685379 8.77969 0.670267 8.754 0.661857 8.72559C0.635127 8.88899 0.614125 9.06248 0.595032 9.23799C0.645627 9.27599 0.694078 9.31708 0.740138 9.36105Z" fill="#F4F4F4"/>
   <path fill-rule="evenodd" clip-rule="evenodd" d="M8.8203 7.9812C8.83176 8.02356 8.76493 8.15671 8.75348 8.19706C8.74202 8.2374 8.70956 8.34029 8.68665 8.4109L8.85849 8.27775C8.89095 8.25354 8.99214 8.14461 9.03223 8.14461C9.07233 8.14461 9.17161 8.25354 9.20407 8.27775L9.37782 8.4109C9.35491 8.34029 9.3339 8.26766 9.31099 8.19706C9.28808 8.12645 9.23271 8.02356 9.24417 7.9812C9.25562 7.93884 9.38545 7.87428 9.41791 7.85007L9.59166 7.71693H9.37782C9.33772 7.71693 9.19643 7.74315 9.16398 7.71693C9.13152 7.6907 9.11051 7.54344 9.09715 7.50309C9.07615 7.43046 9.05324 7.35986 9.03223 7.28723C9.01123 7.35986 8.98832 7.43046 8.96732 7.50309C8.95395 7.54344 8.93295 7.69272 8.90049 7.71693C8.86803 7.74114 8.72675 7.71693 8.68665 7.71693H8.47281L8.64656 7.85007C8.67901 7.87428 8.80694 7.94085 8.8203 7.9812Z" fill="#F4F4F4"/>
   <path fill-rule="evenodd" clip-rule="evenodd" d="M5.19071 6.91C5.20407 6.95034 5.13725 7.08349 5.12579 7.12384C5.10288 7.19646 5.07997 7.26707 5.05896 7.33969L5.2308 7.20655C5.26326 7.18032 5.36254 7.0734 5.40455 7.0734C5.44655 7.0734 5.54393 7.18032 5.57638 7.20655L5.75013 7.33969L5.69285 7.11173C5.67949 7.07139 5.61266 6.93824 5.62603 6.89789C5.63939 6.85755 5.76731 6.78896 5.79977 6.76475L5.97352 6.6316H5.75013C5.71004 6.6316 5.56875 6.65581 5.53629 6.6316C5.50383 6.60739 5.48283 6.45609 5.46946 6.41575C5.44846 6.34312 5.42555 6.27251 5.40455 6.19989L5.33772 6.41575C5.32627 6.45609 5.30526 6.60538 5.27281 6.6316C5.24035 6.65783 5.09906 6.6316 5.05896 6.6316H4.84512L5.01887 6.76475C5.05133 6.79097 5.17925 6.85755 5.19071 6.91Z" fill="#F4F4F4"/>
   <path fill-rule="evenodd" clip-rule="evenodd" d="M5.19071 9.06451C5.20407 9.10486 5.13725 9.23801 5.12579 9.28037C5.11433 9.32274 5.07997 9.4236 5.05896 9.49421L5.2308 9.36106C5.26326 9.33686 5.36254 9.22792 5.40455 9.22792C5.44655 9.22792 5.54393 9.33686 5.57638 9.36106L5.75013 9.49421C5.72722 9.4236 5.70622 9.35098 5.68331 9.28037C5.66039 9.20976 5.60312 9.10486 5.61648 9.06451C5.62985 9.02417 5.75777 8.95759 5.79023 8.93137L5.96397 8.80024H5.75013C5.71004 8.80024 5.56875 8.82647 5.53629 8.80024C5.50383 8.77402 5.48283 8.62675 5.46946 8.5864C5.44846 8.51378 5.42555 8.44115 5.40455 8.37054C5.38164 8.44115 5.36063 8.51378 5.33772 8.5864C5.32627 8.62675 5.30526 8.77603 5.27281 8.80024C5.24035 8.82445 5.09906 8.80024 5.05896 8.80024H4.84512C4.9024 8.84462 4.95968 8.889 5.01887 8.93137C5.07806 8.97373 5.17925 9.02417 5.19071 9.06451Z" fill="#F4F4F4"/>
   <path fill-rule="evenodd" clip-rule="evenodd" d="M6.4012 10.1478C6.41266 10.1882 6.34774 10.3213 6.33438 10.3617L6.26564 10.5775L6.43939 10.4444C6.47185 10.4182 6.57113 10.3112 6.61123 10.3112C6.65132 10.3112 6.75251 10.4182 6.78497 10.4444L6.95681 10.5775C6.93581 10.5049 6.9129 10.4343 6.88998 10.3617C6.87853 10.3213 6.8117 10.1882 6.82316 10.1478C6.83461 10.1075 6.96445 10.0409 6.99691 10.0147L7.17065 9.88355H6.95872C6.91862 9.88355 6.76779 9.90978 6.74488 9.88355C6.72197 9.85733 6.69142 9.70804 6.67996 9.6677C6.65705 9.59709 6.63605 9.52446 6.61314 9.45386L6.54822 9.6677C6.53485 9.70804 6.51576 9.85733 6.48139 9.88355C6.44703 9.90978 6.30765 9.88355 6.26755 9.88355H6.05371C6.1129 9.92592 6.17018 9.9703 6.22746 10.0147C6.28474 10.0591 6.38784 10.1055 6.4012 10.1478Z" fill="#F4F4F4"/>
   <path fill-rule="evenodd" clip-rule="evenodd" d="M5.19071 4.73328C5.20407 4.77564 5.13725 4.90677 5.12579 4.94711C5.10288 5.01974 5.07997 5.09035 5.05896 5.16297L5.2308 5.02983C5.26326 5.0036 5.36254 4.89668 5.40455 4.89668C5.44655 4.89668 5.54393 5.0036 5.57638 5.02983L5.75013 5.16297L5.69285 4.94711C5.67949 4.90677 5.61266 4.77564 5.62603 4.73328C5.63939 4.69091 5.76731 4.62636 5.79977 4.60013L5.97352 4.469H5.75013C5.71004 4.469 5.56875 4.49523 5.53629 4.469C5.50383 4.44278 5.48283 4.29551 5.46946 4.25516C5.44846 4.18254 5.42555 4.11193 5.40455 4.03931L5.33772 4.25516C5.32627 4.29551 5.30526 4.44479 5.27281 4.469C5.24035 4.49321 5.09906 4.469 5.05896 4.469H4.84512C4.9024 4.51338 4.95968 4.55777 5.01887 4.60013C5.07806 4.64249 5.17925 4.69091 5.19071 4.73328Z" fill="#F4F4F4"/>
   <path fill-rule="evenodd" clip-rule="evenodd" d="M5.19071 2.56665C5.20407 2.60902 5.13725 2.74216 5.12579 2.78251C5.10288 2.85312 5.07997 2.92574 5.05896 2.99635L5.2308 2.8632C5.26326 2.83899 5.36254 2.73006 5.40455 2.73006C5.44655 2.73006 5.54393 2.83899 5.57638 2.8632L5.75013 2.99635C5.72722 2.92574 5.70622 2.85312 5.68331 2.78251C5.66994 2.74216 5.60312 2.60902 5.61648 2.56665C5.62985 2.52429 5.75777 2.45973 5.79023 2.43552L5.96397 2.30238H5.75013C5.71004 2.30238 5.56875 2.32861 5.53629 2.30238C5.50383 2.27615 5.48283 2.12687 5.46946 2.08652C5.44846 2.0139 5.42555 1.94329 5.40455 1.87067L5.33772 2.08854C5.32627 2.12889 5.30526 2.27817 5.27281 2.3044C5.24035 2.33062 5.09906 2.3044 5.05896 2.3044H4.84512L5.01887 2.43754C5.05133 2.45973 5.17925 2.52631 5.19071 2.56665Z" fill="#F4F4F4"/>
   <path fill-rule="evenodd" clip-rule="evenodd" d="M3.97448 5.81659C3.98785 5.85694 3.92102 5.99008 3.90766 6.03043C3.88665 6.10306 3.86374 6.17366 3.84083 6.24629L4.01458 6.11314C4.04704 6.08692 4.14632 5.98 4.18641 5.98C4.22651 5.98 4.3277 6.08692 4.36016 6.11314L4.532 6.24629C4.511 6.17366 4.48808 6.10306 4.46708 6.03043C4.45372 5.99008 4.38689 5.85694 4.40026 5.81659C4.41362 5.77624 4.53963 5.70967 4.574 5.68345L4.74584 5.5503H4.54727C4.50718 5.5503 4.3678 5.57653 4.33343 5.5503C4.29906 5.52408 4.27997 5.37479 4.26851 5.33444C4.25706 5.2941 4.2246 5.19121 4.20169 5.12061L4.13677 5.33444C4.12532 5.37479 4.10431 5.52408 4.07186 5.5503C4.0394 5.57653 3.89811 5.5503 3.85801 5.5503H3.63654L3.80837 5.68345C3.84083 5.70967 3.97448 5.77423 3.97448 5.81659Z" fill="#F4F4F4"/>
   <path fill-rule="evenodd" clip-rule="evenodd" d="M3.97448 3.64995C3.98785 3.69232 3.92102 3.82546 3.90766 3.86581C3.88665 3.93642 3.86374 4.00904 3.84083 4.07965L4.01458 3.9465C4.04703 3.9223 4.14632 3.81336 4.18641 3.81336C4.22651 3.81336 4.3277 3.9223 4.36016 3.9465L4.54727 4.0857L4.48236 3.87186C4.46899 3.83151 4.40216 3.69837 4.41553 3.65601C4.42889 3.61364 4.55491 3.54909 4.58928 3.52488L4.76111 3.39173H4.54727C4.50718 3.39173 4.3678 3.41796 4.33343 3.39173C4.29906 3.36551 4.27997 3.21824 4.26851 3.17789L4.20169 2.96204C4.18069 3.03466 4.15777 3.10527 4.13677 3.17789C4.12532 3.21824 4.10431 3.36752 4.07186 3.39173C4.0394 3.41594 3.89811 3.39173 3.85801 3.39173H3.63654L3.80837 3.52488C3.84083 3.54303 3.97448 3.60961 3.97448 3.64995Z" fill="#F4F4F4"/>
   <path fill-rule="evenodd" clip-rule="evenodd" d="M3.84847 10.5775L4.02221 10.4444C4.05467 10.4182 4.15396 10.3112 4.19405 10.3112C4.23415 10.3112 4.33534 10.4182 4.3678 10.4444L4.53963 10.5775C4.51863 10.5049 4.49572 10.4343 4.47472 10.3617C4.46135 10.3213 4.39453 10.1882 4.40789 10.1478C4.42126 10.1075 4.54727 10.0409 4.58164 10.0147L4.75348 9.88355H4.54727C4.50718 9.88355 4.3678 9.90978 4.33343 9.88355C4.29906 9.85733 4.27997 9.70804 4.26851 9.6677C4.2456 9.59709 4.2246 9.52446 4.20169 9.45386L4.13677 9.6677C4.12532 9.70804 4.10431 9.85733 4.07186 9.88355C4.0394 9.90978 3.89811 9.88355 3.85801 9.88355H3.63654L3.80837 10.0147C3.84083 10.0409 3.96875 10.1055 3.98212 10.1478C3.99548 10.1902 3.92866 10.3213 3.91529 10.3617C3.89429 10.4343 3.87138 10.5049 3.84847 10.5775Z" fill="#F4F4F4"/>
   <path fill-rule="evenodd" clip-rule="evenodd" d="M3.11722 4.469C3.08285 4.44479 3.06376 4.29551 3.0504 4.25516C3.02939 4.18254 3.00648 4.11193 2.98548 4.03931C2.96448 4.11193 2.94157 4.18254 2.92056 4.25516C2.9072 4.29551 2.88811 4.44479 2.85374 4.469C2.81937 4.49321 2.67999 4.469 2.6399 4.469H2.42606L2.5998 4.60013C2.63226 4.62636 2.76018 4.69293 2.77355 4.73328C2.78691 4.77362 2.71818 4.90677 2.70672 4.94711L2.63799 5.16297L2.81173 5.02983C2.84419 5.0036 2.94157 4.89668 2.98357 4.89668C3.02558 4.89668 3.12295 5.0036 3.15732 5.02983L3.32915 5.16297L3.26233 4.94711C3.25087 4.90677 3.18405 4.77564 3.1955 4.73328C3.20696 4.69091 3.33679 4.62636 3.36925 4.60013L3.543 4.469H3.33106C3.29097 4.469 3.14968 4.48918 3.11722 4.469Z" fill="#F4F4F4"/>
   <path fill-rule="evenodd" clip-rule="evenodd" d="M3.11722 8.80024C3.08285 8.77603 3.06376 8.62675 3.0504 8.5864C3.02939 8.51378 3.00648 8.44115 2.98548 8.37054C2.96448 8.44115 2.94157 8.51378 2.92056 8.5864C2.9072 8.62675 2.88811 8.77603 2.85374 8.80024C2.81937 8.82445 2.67999 8.80024 2.6399 8.80024H2.42606L2.5998 8.93137C2.63226 8.95759 2.76018 9.02417 2.77355 9.06451C2.78691 9.10486 2.71818 9.23801 2.70672 9.28037C2.69527 9.32274 2.66281 9.4236 2.6399 9.49421L2.81364 9.36106C2.8461 9.33686 2.94348 9.22792 2.98548 9.22792C3.02749 9.22792 3.12486 9.33686 3.15923 9.36106L3.33106 9.49421C3.30815 9.4236 3.28715 9.35098 3.26424 9.28037C3.24133 9.20976 3.18596 9.10486 3.19741 9.06451C3.20887 9.02417 3.3387 8.95759 3.37116 8.93137L3.54491 8.80024H3.33106C3.29097 8.80024 3.14968 8.82647 3.11722 8.80024Z" fill="#F4F4F4"/>
   <path fill-rule="evenodd" clip-rule="evenodd" d="M3.97448 7.9812C3.98785 8.02356 3.92102 8.15671 3.90766 8.19706C3.89429 8.2374 3.86374 8.34029 3.84083 8.4109L4.01458 8.27775C4.04704 8.25354 4.14632 8.14461 4.18641 8.14461C4.22651 8.14461 4.3277 8.25354 4.36016 8.27775L4.532 8.4109L4.46708 8.19706C4.45372 8.15671 4.38689 8.02356 4.40026 7.9812C4.41362 7.93884 4.53963 7.87428 4.574 7.85007L4.74584 7.71693H4.54727C4.50718 7.71693 4.3678 7.74315 4.33343 7.71693C4.29906 7.6907 4.27997 7.54344 4.26851 7.50309L4.20169 7.28723C4.18069 7.35986 4.15777 7.43046 4.13677 7.50309C4.12532 7.54344 4.10431 7.69272 4.07186 7.71693C4.0394 7.74114 3.89811 7.71693 3.85801 7.71693H3.63654L3.80837 7.85007C3.84083 7.87428 3.97448 7.94085 3.97448 7.9812Z" fill="#F4F4F4"/>
   <path fill-rule="evenodd" clip-rule="evenodd" d="M3.11722 6.63563C3.08285 6.60941 3.06376 6.46012 3.0504 6.41978C3.02939 6.34715 3.00648 6.27654 2.98548 6.20392C2.96448 6.27654 2.94157 6.34715 2.92056 6.41978C2.9072 6.46012 2.88811 6.60941 2.85374 6.63563C2.81937 6.66186 2.67999 6.63563 2.6399 6.63563H2.42606L2.5998 6.76878C2.63226 6.79299 2.76018 6.85956 2.77355 6.90192C2.78691 6.94429 2.71818 7.07541 2.70672 7.11576L2.63799 7.3296C2.69527 7.28522 2.75255 7.23882 2.81173 7.19646C2.87092 7.15409 2.94157 7.06331 2.98357 7.06331C3.02558 7.06331 3.12295 7.17023 3.15732 7.19646L3.32915 7.3296L3.26424 7.11173C3.25278 7.07138 3.18596 6.93823 3.19741 6.89789C3.20887 6.85754 3.3387 6.78895 3.37116 6.76474L3.54491 6.6316H3.33106C3.29097 6.63563 3.14968 6.65984 3.11722 6.63563Z" fill="#F4F4F4"/>
   <path fill-rule="evenodd" clip-rule="evenodd" d="M1.90863 9.88355C1.87427 9.85733 1.85517 9.70804 1.84181 9.6677L1.77689 9.45386C1.75398 9.52446 1.73298 9.59709 1.71007 9.6677C1.69861 9.70804 1.67761 9.85733 1.64515 9.88355C1.61269 9.90978 1.47141 9.88355 1.43131 9.88355H1.21747L1.39121 10.0147C1.42367 10.0409 1.5516 10.1055 1.56305 10.1478C1.57451 10.1902 1.50959 10.3213 1.49814 10.3617C1.47522 10.4343 1.45231 10.5049 1.43131 10.5775L1.60315 10.4444C1.6356 10.4182 1.73489 10.3112 1.77689 10.3112C1.8189 10.3112 1.91627 10.4182 1.94873 10.4444L2.12248 10.5775C2.09956 10.5049 2.07665 10.4343 2.05565 10.3617C2.04229 10.3213 1.97546 10.1882 1.98883 10.1478C2.00219 10.1075 2.13011 10.0409 2.16257 10.0147L2.33441 9.88355H2.12057C2.08047 9.88355 1.94109 9.90978 1.90863 9.88355Z" fill="#F4F4F4"/>
   <path fill-rule="evenodd" clip-rule="evenodd" d="M7.60217 2.56665C7.61553 2.60902 7.54871 2.74216 7.53534 2.78251L7.47043 2.99635L7.64226 2.8632C7.67472 2.83899 7.774 2.73006 7.81601 2.73006C7.85801 2.73006 7.95539 2.83899 7.98785 2.8632L8.16159 2.99635C8.13868 2.92574 8.11577 2.85312 8.09477 2.78251C8.0814 2.74216 8.01458 2.60902 8.02794 2.56665C8.04131 2.52429 8.16732 2.45973 8.20169 2.43552L8.37352 2.30238H8.17496C8.13486 2.30238 7.99548 2.32861 7.96112 2.30238C7.92675 2.27615 7.90765 2.12687 7.8962 2.08652C7.87329 2.0139 7.85229 1.94329 7.83128 1.87067L7.75682 2.08854C7.74536 2.12889 7.72436 2.27817 7.6919 2.3044C7.65945 2.33062 7.51816 2.3044 7.47806 2.3044H7.26422L7.43606 2.43754C7.47043 2.45973 7.60217 2.52631 7.60217 2.56665Z" fill="#F4F4F4"/>
   <path fill-rule="evenodd" clip-rule="evenodd" d="M8.8203 10.1478C8.83176 10.1882 8.76493 10.3213 8.75348 10.3617L8.68665 10.5775L8.85849 10.4444C8.89095 10.4182 8.99214 10.3112 9.03223 10.3112C9.07233 10.3112 9.17161 10.4182 9.20407 10.4444L9.37782 10.5775L9.32054 10.3617C9.30908 10.3213 9.24226 10.1882 9.25371 10.1478C9.26517 10.1075 9.395 10.0409 9.42746 10.0147L9.6012 9.88355H9.37782C9.33772 9.88355 9.19643 9.90978 9.16398 9.88355C9.13152 9.85733 9.11051 9.70804 9.09715 9.6677L9.03223 9.45386L8.96732 9.6677C8.95395 9.70804 8.93295 9.85733 8.90049 9.88355C8.86803 9.90978 8.72675 9.88355 8.68665 9.88355H8.47281L8.64656 10.0147C8.67901 10.0409 8.80694 10.1055 8.8203 10.1478Z" fill="#F4F4F4"/>
   <path fill-rule="evenodd" clip-rule="evenodd" d="M7.60217 4.73328C7.61553 4.77564 7.54871 4.90677 7.53534 4.94711C7.51434 5.01974 7.49143 5.09035 7.47043 5.16297L7.64226 5.02983C7.67472 5.0036 7.774 4.89668 7.81601 4.89668C7.85801 4.89668 7.95539 5.0036 7.98785 5.02983L8.16159 5.16297C8.13868 5.09035 8.11577 5.01974 8.09477 4.94711C8.0814 4.90677 8.01458 4.77564 8.02794 4.73328C8.04131 4.69091 8.16732 4.62636 8.20169 4.60013L8.37352 4.469H8.17496C8.13486 4.469 7.99548 4.49523 7.96112 4.469C7.92675 4.44278 7.90765 4.29551 7.8962 4.25516C7.87329 4.18254 7.85229 4.11193 7.83128 4.03931L7.76446 4.25516C7.753 4.29551 7.732 4.44479 7.69954 4.469C7.66708 4.49321 7.5258 4.469 7.4857 4.469H7.26422L7.43606 4.60013C7.47043 4.62636 7.60217 4.69091 7.60217 4.73328Z" fill="#F4F4F4"/>
   <path fill-rule="evenodd" clip-rule="evenodd" d="M8.8203 5.81659C8.83176 5.85694 8.76493 5.99008 8.75348 6.03043L8.68665 6.24629L8.85849 6.11314C8.89095 6.08692 8.99214 5.98 9.03223 5.98C9.07233 5.98 9.17161 6.08692 9.20407 6.11314L9.37782 6.24629L9.32054 6.03043C9.30908 5.99008 9.24226 5.85694 9.25371 5.81659C9.26517 5.77624 9.395 5.70967 9.42746 5.68345L9.6012 5.5503H9.37782C9.33772 5.5503 9.19643 5.57653 9.16398 5.5503C9.13152 5.52408 9.11051 5.37479 9.09715 5.33444L9.03223 5.12061L8.96732 5.33444C8.95395 5.37479 8.93295 5.52408 8.90049 5.5503C8.86803 5.57653 8.72675 5.5503 8.68665 5.5503H8.47281L8.64656 5.68345C8.67901 5.70967 8.80694 5.77423 8.8203 5.81659Z" fill="#F4F4F4"/>
   <path fill-rule="evenodd" clip-rule="evenodd" d="M8.8203 3.64996C8.83176 3.69233 8.76493 3.82547 8.75348 3.86582C8.73056 3.93643 8.70956 4.00905 8.68665 4.07966L8.85849 3.94651C8.89095 3.9223 8.99214 3.81337 9.03223 3.81337C9.07233 3.81337 9.17161 3.9223 9.20407 3.94651L9.37782 4.07966C9.35491 4.00905 9.3339 3.93643 9.31099 3.86582C9.29954 3.82547 9.23271 3.69233 9.24417 3.64996C9.25562 3.6076 9.38545 3.54304 9.41791 3.51883L9.59166 3.38569H9.37782C9.33772 3.38569 9.19643 3.41191 9.16398 3.38569C9.13152 3.35946 9.11051 3.2122 9.09715 3.17185C9.07615 3.09923 9.05324 3.02862 9.03223 2.95599C9.01123 3.02862 8.98832 3.09923 8.96732 3.17185C8.95395 3.2122 8.93295 3.36148 8.90049 3.38569C8.86803 3.4099 8.72675 3.38569 8.68665 3.38569H8.47281L8.64656 3.51883C8.67901 3.54304 8.80694 3.60962 8.8203 3.64996Z" fill="#F4F4F4"/>
   <path fill-rule="evenodd" clip-rule="evenodd" d="M7.60217 6.90998C7.61553 6.95033 7.54871 7.08347 7.53534 7.12382C7.51434 7.19644 7.49143 7.26705 7.47043 7.33967L7.64226 7.20653C7.67472 7.1803 7.774 7.07338 7.81601 7.07338C7.85801 7.07338 7.95539 7.1803 7.98785 7.20653L8.16159 7.33967C8.13868 7.26705 8.11577 7.19644 8.09477 7.12382C8.0814 7.08347 8.01458 6.95033 8.02794 6.90998C8.04131 6.86963 8.16732 6.80104 8.20169 6.77683L8.37352 6.64369H8.17496C8.13486 6.64369 7.99548 6.6679 7.96112 6.64369C7.92675 6.61948 7.90765 6.46818 7.8962 6.42783C7.87329 6.35521 7.85229 6.2846 7.83128 6.21198L7.76446 6.42783C7.753 6.46818 7.732 6.61746 7.69954 6.64369C7.66708 6.66991 7.5258 6.64369 7.4857 6.64369H7.26422L7.43606 6.77683C7.47043 6.79095 7.60217 6.85753 7.60217 6.90998Z" fill="#F4F4F4"/>
   <path fill-rule="evenodd" clip-rule="evenodd" d="M6.4012 3.64996C6.41266 3.69233 6.34774 3.82547 6.33438 3.86582C6.31147 3.93643 6.29046 4.00905 6.26755 4.07966L6.4413 3.94651C6.47376 3.9223 6.57304 3.81337 6.61314 3.81337C6.65323 3.81337 6.75442 3.9223 6.78688 3.94651L6.95872 4.07966C6.93772 4.00905 6.91481 3.93643 6.89189 3.86582C6.88044 3.82547 6.81361 3.69233 6.82507 3.64996C6.83652 3.6076 6.96636 3.54304 6.99881 3.51883L7.17256 3.38569H6.95872C6.91862 3.38569 6.76779 3.41191 6.74488 3.38569C6.72197 3.35946 6.69142 3.2122 6.67996 3.17185L6.61314 2.95599C6.59213 3.02862 6.56922 3.09923 6.54822 3.17185C6.53485 3.2122 6.51576 3.36148 6.48139 3.38569C6.44703 3.4099 6.30765 3.38569 6.26755 3.38569H6.05371L6.22746 3.51883C6.26564 3.54304 6.38784 3.60962 6.4012 3.64996Z" fill="#F4F4F4"/>
   <path fill-rule="evenodd" clip-rule="evenodd" d="M7.60217 9.06451C7.61553 9.10486 7.54871 9.23801 7.53534 9.28037L7.47043 9.49421L7.64226 9.36106C7.67472 9.33686 7.774 9.22792 7.81601 9.22792C7.85801 9.22792 7.95539 9.33686 7.98785 9.36106L8.16159 9.49421C8.13868 9.4236 8.11577 9.35098 8.09477 9.28037C8.07376 9.20976 8.01458 9.10486 8.02794 9.06451C8.04131 9.02417 8.16732 8.95759 8.20169 8.93137L8.37352 8.80024H8.17496C8.13486 8.80024 7.99548 8.82647 7.96112 8.80024C7.92675 8.77402 7.90765 8.62675 7.8962 8.5864C7.87329 8.51378 7.85229 8.44115 7.83128 8.37054C7.80837 8.44115 7.78737 8.51378 7.76446 8.5864C7.753 8.62675 7.732 8.77603 7.69954 8.80024C7.66708 8.82445 7.5258 8.80024 7.4857 8.80024H7.26422L7.43606 8.93137C7.47043 8.95759 7.60217 9.02417 7.60217 9.06451Z" fill="#F4F4F4"/>
   <path fill-rule="evenodd" clip-rule="evenodd" d="M6.4012 7.9812C6.41266 8.02356 6.34774 8.15671 6.33438 8.19706C6.32101 8.2374 6.29046 8.34029 6.26755 8.4109L6.4413 8.27775C6.47376 8.25354 6.57304 8.14461 6.61314 8.14461C6.65323 8.14461 6.75442 8.25354 6.78688 8.27775L6.95872 8.4109C6.93772 8.34029 6.91481 8.26766 6.89189 8.19706C6.86898 8.12645 6.81361 8.02356 6.82507 7.9812C6.83652 7.93884 6.96636 7.87428 6.99881 7.85007L7.17256 7.71693H6.95872C6.91862 7.71693 6.76779 7.74315 6.74488 7.71693C6.72197 7.6907 6.69142 7.54344 6.67996 7.50309L6.61314 7.28723C6.59213 7.35986 6.56922 7.43046 6.54822 7.50309C6.53485 7.54344 6.51576 7.69272 6.48139 7.71693C6.44703 7.74114 6.30765 7.71693 6.26755 7.71693H6.05371L6.22746 7.85007C6.26564 7.87428 6.38784 7.94085 6.4012 7.9812Z" fill="#F4F4F4"/>
   <path fill-rule="evenodd" clip-rule="evenodd" d="M6.4012 5.81659C6.41266 5.85694 6.34774 5.99008 6.33438 6.03043L6.26564 6.24629L6.43939 6.11314C6.47185 6.08692 6.57113 5.98 6.61123 5.98C6.65132 5.98 6.75251 6.08692 6.78497 6.11314L6.95681 6.24629C6.93581 6.17366 6.9129 6.10306 6.88998 6.03043C6.87853 5.99008 6.8117 5.85694 6.82316 5.81659C6.83461 5.77624 6.96445 5.70967 6.99691 5.68345L7.17065 5.5503H6.95872C6.91862 5.5503 6.76779 5.57653 6.74488 5.5503C6.72197 5.52408 6.69142 5.37479 6.67996 5.33444C6.66851 5.2941 6.63605 5.19121 6.61314 5.12061L6.54822 5.33444C6.53485 5.37479 6.51576 5.52408 6.48139 5.5503C6.44703 5.57653 6.30765 5.5503 6.26755 5.5503H6.05371L6.22746 5.68345C6.26564 5.70967 6.38784 5.77423 6.4012 5.81659Z" fill="#F4F4F4"/>
   <path fill-rule="evenodd" clip-rule="evenodd" d="M1.90863 7.71693C1.87427 7.69272 1.85517 7.54344 1.84181 7.50309C1.82081 7.43046 1.7979 7.35986 1.77689 7.28723L1.71007 7.50309C1.69861 7.54344 1.67761 7.69272 1.64515 7.71693C1.61269 7.74114 1.47141 7.71693 1.43131 7.71693H1.21747L1.39121 7.85007C1.42367 7.87428 1.5516 7.94085 1.56305 7.9812C1.57451 8.02155 1.50959 8.15671 1.49814 8.19706C1.48668 8.2374 1.45231 8.34029 1.43131 8.4109L1.60315 8.27775C1.6356 8.25354 1.73489 8.14461 1.77689 8.14461C1.8189 8.14461 1.91627 8.25354 1.94873 8.27775L2.12248 8.4109C2.09956 8.34029 2.07665 8.26766 2.05565 8.19706C2.03465 8.12645 1.97546 8.02356 1.98883 7.9812C2.00219 7.93884 2.13011 7.87428 2.16257 7.85007L2.33441 7.71693H2.12057C2.08047 7.71693 1.94109 7.74315 1.90863 7.71693Z" fill="#F4F4F4"/>
   <path fill-rule="evenodd" clip-rule="evenodd" d="M8.8203 1.48535C8.83176 1.5257 8.76493 1.65885 8.75348 1.69919L8.68665 1.91505L8.85849 1.7819C8.89095 1.75568 8.99214 1.64876 9.03223 1.64876C9.07233 1.64876 9.17161 1.75568 9.20407 1.7819L9.37782 1.91505L9.32054 1.69919C9.30908 1.65885 9.24226 1.5257 9.25371 1.48535C9.26517 1.44501 9.395 1.37642 9.42746 1.35221L9.6012 1.21906H9.37782C9.33772 1.21906 9.19643 1.24327 9.16398 1.21906C9.13152 1.19486 9.11051 1.04355 9.09715 1.00321L9.03223 0.789368L8.96732 1.00321C8.95395 1.04355 8.93295 1.19284 8.90049 1.21906C8.86803 1.24529 8.72675 1.21906 8.68665 1.21906H8.47281L8.64656 1.35221C8.67901 1.37642 8.80694 1.44299 8.8203 1.48535Z" fill="#F4F4F4"/>
   </g>
   </svg>
   