<svg width="18" height="17" viewBox="0 0 18 17" fill="none" xmlns="http://www.w3.org/2000/svg">
   <path fill-rule="evenodd" clip-rule="evenodd" d="M0.666992 3C0.666992 1.61929 1.78628 0.5 3.16699 0.5H14.8337C16.2144 0.5 17.3337 1.61929 17.3337 3V11.3333C17.3337 12.7141 16.2144 13.8333 14.8337 13.8333H5.11143L2.33366 15.9167C1.64696 16.4317 0.666992 15.9417 0.666992 15.0833V3ZM4.83366 5.5C4.83366 5.03977 5.20676 4.66667 5.66699 4.66667H12.3337C12.7939 4.66667 13.167 5.03977 13.167 5.5C13.167 5.96023 12.7939 6.33333 12.3337 6.33333H5.66699C5.20676 6.33333 4.83366 5.96023 4.83366 5.5ZM5.66699 8C5.20676 8 4.83366 8.37308 4.83366 8.83333C4.83366 9.29358 5.20676 9.66667 5.66699 9.66667H8.16699C8.62724 9.66667 9.00033 9.29358 9.00033 8.83333C9.00033 8.37308 8.62724 8 8.16699 8H5.66699Z" fill="white" fill-opacity="0.5"/>
   </svg>
   