<svg width="20" height="20" viewBox="0 0 20 20" fill="none" xmlns="http://www.w3.org/2000/svg">
   <path d="M5.83325 2.50002V3.33335C5.83325 4.25383 6.57944 5.00002 7.49992 5.00002H12.4999C13.4204 5.00002 14.1666 4.25383 14.1666 3.33335V2.50002H14.9999C15.9204 2.50002 16.6666 3.24621 16.6666 4.16669V13.3334C16.6666 16.0948 14.428 18.3334 11.6666 18.3334H4.99992C4.07944 18.3334 3.33325 17.5872 3.33325 16.6667V4.16669C3.33325 3.24621 4.07944 2.50002 4.99992 2.50002H5.83325ZM9.99992 11.6667H7.49992C7.03969 11.6667 6.66659 12.0398 6.66659 12.5C6.66659 12.9603 7.03969 13.3334 7.49992 13.3334H9.99992C10.4602 13.3334 10.8333 12.9603 10.8333 12.5C10.8333 12.0398 10.4602 11.6667 9.99992 11.6667ZM12.4999 8.33335H7.49992C7.03969 8.33335 6.66659 8.70644 6.66659 9.16669C6.66659 9.59406 6.98829 9.94628 7.40274 9.99441L7.49992 10H12.4999C12.9602 10 13.3333 9.62694 13.3333 9.16669C13.3333 8.70644 12.9602 8.33335 12.4999 8.33335ZM11.6666 1.66669C12.1268 1.66669 12.4999 2.03979 12.4999 2.50002C12.4999 2.92738 12.1782 3.27961 11.7638 3.32775L11.6666 3.33335H8.33325C7.87302 3.33335 7.49992 2.96025 7.49992 2.50002C7.49992 2.07266 7.82162 1.72043 8.23607 1.67229L8.33325 1.66669H11.6666Z" fill="white" fill-opacity="0.5"/>
   </svg>
   