<svg width="19" height="22" viewBox="0 0 19 22" fill="none" xmlns="http://www.w3.org/2000/svg">
   <path fill-rule="evenodd" clip-rule="evenodd" d="M16.8884 9.64967L18.038 8.95801C18.3623 8.76258 18.5948 8.44646 18.6922 8.06748C18.7893 7.68828 18.7402 7.29307 18.5527 6.95524L17.495 5.04573C17.3077 4.70767 17.0044 4.46516 16.6406 4.36367C16.2774 4.26241 15.8978 4.31361 15.5735 4.50904L14.4237 5.20071C14.2673 5.29511 13.9864 5.27202 13.8458 5.15294C13.8328 5.14196 13.5291 4.88596 13.0901 4.62173C12.6577 4.36075 12.2895 4.21276 12.2716 4.20557L12.2714 4.2055C12.1023 4.13784 11.9425 3.89578 11.9425 3.70652V2.32365C11.9422 1.51472 11.3111 0.857117 10.5354 0.857117H8.42002C7.64434 0.857117 7.01319 1.51472 7.01319 2.32342V3.70675C7.01319 3.89532 6.85332 4.13784 6.68423 4.2055C6.66888 4.21167 6.29958 4.36024 5.86558 4.62173C5.42653 4.88596 5.1228 5.14196 5.1103 5.15271C4.96994 5.27179 4.68924 5.29511 4.53221 5.20071L3.38197 4.50859C3.05762 4.31338 2.67889 4.26218 2.31484 4.36344C1.95124 4.46493 1.64772 4.70745 1.46044 5.04528L0.402741 6.95478C0.215456 7.29284 0.166113 7.68805 0.263483 8.0668C0.360854 8.44623 0.593315 8.76235 0.917445 8.95755L2.06725 9.64944C2.22383 9.74361 2.34511 10.0088 2.31616 10.1948C2.31353 10.2113 2.25366 10.6056 2.25366 11.1429C2.25366 11.6803 2.31353 12.0742 2.31616 12.0906C2.34489 12.2764 2.22361 12.5418 2.06725 12.636L0.917445 13.3277C0.593096 13.5229 0.360854 13.8392 0.263483 14.2186C0.166113 14.5974 0.215456 14.993 0.402741 15.3309L1.46044 17.2404C1.8486 17.9403 2.71025 18.1807 3.38241 17.7771L4.53199 17.0854C4.68858 16.9908 4.9695 17.0143 5.10964 17.1332C5.12258 17.1442 5.42653 17.4004 5.86558 17.6648C6.2998 17.9268 6.6691 18.0751 6.68445 18.0811C6.85354 18.1487 7.01341 18.391 7.01341 18.5798V19.9622C7.01341 20.7705 7.64456 21.4285 8.42023 21.4285H10.5356C11.3113 21.4285 11.9425 20.7705 11.9425 19.9622V18.5798C11.9425 18.3913 12.1023 18.1487 12.2714 18.0811C12.2868 18.0751 12.6565 17.9266 13.0905 17.6648C13.5298 17.4004 13.8339 17.1442 13.8464 17.1332C13.9868 17.0143 14.2682 16.9912 14.4245 17.0854L15.5735 17.7766C15.8978 17.972 16.2772 18.0235 16.6406 17.9222C17.0044 17.8207 17.3079 17.578 17.495 17.2402L18.5527 15.3306C18.74 14.9926 18.7893 14.5976 18.6922 14.2189C18.5948 13.8394 18.3621 13.5229 18.0378 13.3279L16.8886 12.6362C16.732 12.542 16.6108 12.2771 16.6395 12.0908C16.6423 12.0744 16.702 11.6803 16.702 11.1432C16.702 10.6053 16.6419 10.2115 16.6393 10.195C16.6105 10.009 16.7318 9.74384 16.8884 9.64967ZM15.9504 10.31L15.9511 10.3147L15.9511 10.3147C15.957 10.3579 16.0037 10.6967 16.0037 11.1432C16.0037 11.6164 15.9515 11.9685 15.9505 11.9753L15.9504 11.9754C15.8763 12.4561 16.1353 13.0232 16.5397 13.2664L17.6891 13.9578C17.852 14.0561 17.9687 14.2154 18.018 14.4072C18.0674 14.5983 18.0424 14.7974 17.9485 14.967L16.8908 16.8765C16.7965 17.0466 16.6439 17.1679 16.4601 17.2196C16.2768 17.271 16.0858 17.245 15.9226 17.1469L14.7739 16.4559C14.3699 16.2123 13.769 16.2621 13.4067 16.5686C13.4041 16.5713 13.13 16.8015 12.7418 17.0351C12.3576 17.2664 12.0247 17.4013 12.0216 17.4022C11.5861 17.5764 11.2446 18.0939 11.2446 18.5801V19.9625C11.2446 20.3698 10.9269 20.701 10.5361 20.701H8.42068C8.02988 20.701 7.71211 20.3698 7.71211 19.9625V18.5801C7.71211 18.0939 7.37087 17.5762 6.93512 17.402C6.93161 17.4006 6.60243 17.2685 6.21515 17.0351C5.82698 16.8015 5.55285 16.5713 5.55044 16.5686C5.18793 16.2621 4.58682 16.212 4.18352 16.4559L3.40719 16.9227C3.35401 16.9552 3.27557 17.0022 3.15371 17.0754L3.15356 17.0754L3.03416 17.1471C2.69511 17.351 2.26111 17.2294 2.06593 16.8772L1.00824 14.9677C0.914155 14.7976 0.889374 14.5985 0.938717 14.4074C0.987841 14.2157 1.10473 14.0563 1.26745 13.9581L1.30679 13.9345C1.49579 13.821 1.58948 13.7648 1.63983 13.7327L2.41616 13.2664C2.82056 13.0232 3.07911 12.4559 3.00521 11.9759L3.00505 11.9748C3.0019 11.9528 2.95192 11.6057 2.95192 11.1432C2.95192 10.6698 3.00422 10.3171 3.0052 10.3106L3.00521 10.3105C3.07955 9.82979 2.82077 9.2627 2.41616 9.01949L1.63807 8.55115L1.26636 8.3276C1.10363 8.22977 0.986745 8.07023 0.937621 7.87868C0.888278 7.68736 0.913278 7.4885 1.00714 7.31845L2.06484 5.40894C2.15892 5.23934 2.31155 5.11751 2.49555 5.06631C2.67889 5.01488 2.8699 5.04093 3.03262 5.13831L4.18287 5.83043C4.58748 6.07386 5.18771 6.02426 5.54978 5.71751C5.55263 5.715 5.82632 5.48551 6.21471 5.25145C6.59849 5.02013 6.93117 4.8855 6.93402 4.88459C7.36956 4.71042 7.71101 4.19338 7.71101 3.70675V2.32342C7.71101 1.9161 8.02878 1.58467 8.41958 1.58467H10.535C10.9258 1.58467 11.2435 1.9161 11.2435 2.32342V3.70629C11.2435 4.19293 11.585 4.71042 12.0203 4.88436C12.0238 4.88573 12.3563 5.02013 12.7403 5.25122C13.1285 5.48505 13.4024 5.71477 13.405 5.71729C13.7668 6.02403 14.3682 6.07386 14.7719 5.83043L15.9217 5.13899C16.0844 5.04071 16.2748 5.01488 16.4592 5.06653C16.643 5.11774 16.7956 5.23934 16.8897 5.40894L17.9474 7.31845C18.0415 7.4885 18.0663 7.68759 18.0169 7.87868C17.9676 8.07023 17.8509 8.22977 17.688 8.3276L16.5393 9.01949C16.1349 9.2627 15.8761 9.82979 15.9504 10.31ZM9.47771 7.1413C7.361 7.1413 5.63838 8.93675 5.63838 11.1434C5.63838 13.3501 7.361 15.1453 9.47771 15.1453C11.5944 15.1453 13.317 13.3501 13.317 11.1434C13.317 8.93675 11.5944 7.1413 9.47771 7.1413ZM9.47771 14.4175C7.74588 14.4175 6.33686 12.9484 6.33686 11.1434C6.33686 9.33812 7.74588 7.86931 9.47771 7.86931C11.2095 7.86931 12.6186 9.33812 12.6186 11.1434C12.6186 12.9484 11.2095 14.4175 9.47771 14.4175Z" fill="#1F263E"/>
   </svg>
   