<svg width="22" height="20" viewBox="0 0 22 20" fill="none" xmlns="http://www.w3.org/2000/svg">
   <path fill-rule="evenodd" clip-rule="evenodd" d="M0.733307 0.742859H21.6068C21.8264 0.742859 22.0041 0.936108 22.0041 1.17434C22.0041 1.41256 21.8264 1.60555 21.6068 1.60555H0.733307C0.513737 1.60555 0.33606 1.41283 0.33606 1.17434C0.33606 0.935847 0.513737 0.742859 0.733307 0.742859ZM6.15031 6.62664H21.6068C21.8264 6.62664 22.0041 6.81988 22.0041 7.05811C22.0041 7.29634 21.8264 7.48933 21.6068 7.48933H6.15031C5.93074 7.48933 5.75307 7.29634 5.75307 7.05811C5.75307 6.81988 5.93074 6.62664 6.15031 6.62664ZM21.6068 12.5104H0.733307C0.513737 12.5104 0.33606 12.7034 0.33606 12.9419C0.33606 13.1801 0.513737 13.3734 0.733307 13.3734H21.6068C21.8264 13.3734 22.0041 13.1801 22.0041 12.9419C22.0041 12.7034 21.8264 12.5104 21.6068 12.5104ZM6.15031 18.3939H21.6068C21.8264 18.3939 22.0041 18.5869 22.0041 18.8254C22.0041 19.0639 21.8264 19.2571 21.6068 19.2571H6.15031C5.93074 19.2571 5.75307 19.0639 5.75307 18.8254C5.75307 18.5869 5.93074 18.3939 6.15031 18.3939Z" fill="#1F263E"/>
   </svg>
   