<svg width="12" height="14" viewBox="0 0 12 14" fill="none" xmlns="http://www.w3.org/2000/svg">
   <path d="M8.32 6.89684C7.78566 7.68429 7.5 8.61401 7.5 9.56564V11.5919C7.5 12.1639 7.17473 12.6861 6.66136 12.9383C5.66466 13.4279 4.5 12.7024 4.5 11.592V9.05223C4.5 8.43515 4.31477 7.83229 3.96828 7.32167L0.194488 1.7603C0.067753 1.57353 0 1.35302 0 1.12731C0 0.504715 0.504714 0 1.12731 0H10.8727C11.4953 0 12 0.504715 12 1.12731C12 1.35302 11.9322 1.57353 11.8055 1.7603L8.32 6.89684ZM6 1.47368C4.21536 1.47368 3.15755 3.46986 4.15962 4.9466C5.042 6.24695 6.958 6.24695 7.84038 4.9466C8.84245 3.46986 7.78464 1.47368 6 1.47368Z" fill="#23262F" fill-opacity="0.95"/>
   </svg>
   