<svg width="22" height="24" viewBox="0 0 22 24" fill="none" xmlns="http://www.w3.org/2000/svg">
   <path fill-rule="evenodd" clip-rule="evenodd" d="M21.4404 5.68867L11.9114 0.746458C11.4606 0.513062 10.7199 0.513062 10.2691 0.746458L0.739817 5.68867C0.432523 5.84765 0.255981 6.10263 0.255981 6.38784C0.255981 6.3919 0.257206 6.39571 0.257206 6.40003V16.862C0.257206 17.4303 0.624 18.0556 1.11004 18.3164L10.2686 23.2399C10.503 23.3653 10.7963 23.4286 11.0899 23.4286C11.3837 23.4286 11.6773 23.3653 11.9114 23.2393L21.0692 18.3169C21.5555 18.0559 21.9221 17.4306 21.9221 16.862V6.40917C21.9223 6.40181 21.924 6.3952 21.924 6.38784C21.9243 6.10263 21.7477 5.84765 21.4404 5.68867ZM10.6969 22.5442C10.6741 22.5348 10.6508 22.5265 10.6305 22.5158L1.47145 17.5924C1.25181 17.474 1.04393 17.1197 1.04393 16.8622V7.24549L10.2691 12.0292C10.3942 12.0937 10.5404 12.1407 10.6969 12.1717V22.5442ZM10.6207 11.2996L1.14946 6.38784L10.6207 1.47611C10.8504 1.35725 11.3298 1.35725 11.5595 1.47611L21.0308 6.38784L11.5595 11.2996C11.3298 11.4184 10.8504 11.4184 10.6207 11.2996ZM21.1358 16.8622C21.1358 17.1197 20.9277 17.4745 20.7078 17.5929L11.5495 22.515C11.5294 22.5262 11.5059 22.5343 11.4834 22.5432V12.1717C11.6398 12.141 11.786 12.0937 11.9111 12.0292L21.1358 7.24549V16.8622Z" fill="#1F263E"/>
   </svg>
   