<svg width="24" height="24" viewBox="0 0 24 24" fill="none" xmlns="http://www.w3.org/2000/svg">
   <g clip-path="url(#clip0_220_514)">
   <path d="M21.5533 4.00019C21.4625 3.99082 21.3709 3.99082 21.28 4.00019H2.61334C2.49371 4.00203 2.37486 4.01997 2.26001 4.05352L11.8933 13.6469L21.5533 4.00019Z" fill="#808080"/>
   <path d="M22.54 4.92676L12.8333 14.5934C12.5835 14.8418 12.2456 14.9811 11.8933 14.9811C11.5411 14.9811 11.2032 14.8418 10.9533 14.5934L1.33335 5.00009C1.30378 5.10878 1.28809 5.22079 1.28668 5.33342V18.6668C1.28668 19.0204 1.42716 19.3595 1.67721 19.6096C1.92725 19.8596 2.26639 20.0001 2.62002 20.0001H21.2867C21.6403 20.0001 21.9794 19.8596 22.2295 19.6096C22.4795 19.3595 22.62 19.0204 22.62 18.6668V5.33342C22.6147 5.19453 22.5877 5.05731 22.54 4.92676ZM3.53335 18.6668H2.60668V17.7134L7.45335 12.9068L8.39335 13.8468L3.53335 18.6668ZM21.2733 18.6668H20.34L15.48 13.8468L16.42 12.9068L21.2667 17.7134L21.2733 18.6668Z" fill="#808080"/>
   </g>
   <defs>
   <clipPath id="clip0_220_514">
   <rect width="24" height="24" fill="white"/>
   </clipPath>
   </defs>
   </svg>
   