<svg width="698" height="477" viewBox="0 0 698 477" fill="none" xmlns="http://www.w3.org/2000/svg">
<path d="M312.932 33.851C314.923 33.625 316.912 33.411 318.899 33.21" stroke="#D03F23" stroke-width="4" stroke-miterlimit="10" stroke-linecap="round"/>
<path d="M336.752 31.7181C353.567 30.6131 370.082 30.3721 385.982 30.9271" stroke="#D03F23" stroke-width="4" stroke-miterlimit="10" stroke-linecap="round" stroke-dasharray="14.93 8.96 17.91 14.93"/>
<path d="M393.438 31.2471C421.131 32.6651 446.759 36.5261 468.596 42.4551" stroke="#D03F23" stroke-width="4" stroke-miterlimit="10" stroke-linecap="round" stroke-dasharray="8.96 17.91 14.93 8.96 17.91 14.93"/>
<path d="M475.769 44.519C477.708 45.11 479.614 45.718 481.484 46.343" stroke="#D03F23" stroke-width="4" stroke-miterlimit="10" stroke-linecap="round"/>
<path d="M479.034 449.558C477.113 449.958 475.151 450.343 473.149 450.712" stroke="#D03F23" stroke-width="4" stroke-miterlimit="10" stroke-linecap="round"/>
<path d="M446.962 454.479C424.813 456.912 399.878 458.04 374.371 458.193" stroke="#D03F23" stroke-width="4" stroke-miterlimit="10" stroke-linecap="round" stroke-dasharray="22.05 13.23 26.46 22.05"/>
<path d="M363.343 458.199C309.686 457.947 254.921 453.628 219.383 448.272C175.399 441.643 133.975 423.128 100.092 394.31C80.5241 377.668 61.8651 356.329 49.9091 329.756" stroke="#D03F23" stroke-width="4" stroke-miterlimit="10" stroke-linecap="round" stroke-dasharray="13.23 26.46 22.05 13.23 26.46 22.05"/>
<path d="M45.7271 319.48C45.0451 317.611 44.3971 315.718 43.7831 313.801" stroke="#D03F23" stroke-width="4" stroke-miterlimit="10" stroke-linecap="round"/>
<path d="M547.533 78.7358C549.199 79.8488 550.851 80.9768 552.487 82.1218" stroke="#D03F23" stroke-width="4" stroke-miterlimit="10" stroke-linecap="round"/>
<path d="M569.641 95.1377C585.178 107.91 599.044 122.157 610.938 137.427" stroke="#D03F23" stroke-width="4" stroke-miterlimit="10" stroke-linecap="round" stroke-dasharray="17.95 10.77 21.53 17.95"/>
<path d="M616.324 144.599C634.876 170.229 647.959 198.438 654.229 227.212" stroke="#D03F23" stroke-width="4" stroke-miterlimit="10" stroke-linecap="round" stroke-dasharray="10.77 21.53 17.95 10.77 21.53 17.95"/>
<path d="M655.931 236.021C656.264 237.996 656.565 239.973 656.832 241.951" stroke="#D03F23" stroke-width="4" stroke-miterlimit="10" stroke-linecap="round"/>
<g opacity="0.4">
<path d="M625.964 219.07C565.214 161.77 461.712 152.579 408.619 218.855C381.79 252.344 380.16 300.492 389.447 326.869C418.341 408.932 557.195 536.666 659.029 444.359C724.897 384.652 692.94 282.243 625.964 219.07Z" fill="#CCC0B2"/>
</g>
<mask id="mask0_220_537" style="mask-type:luminance" maskUnits="userSpaceOnUse" x="307" y="137" width="391" height="340">
<path d="M633.603 159.381C572.853 102.081 368.033 168.337 314.94 234.612C288.111 268.101 346.809 390.914 356.096 417.291C366.825 447.764 433.704 405.165 459.597 423.574C515.39 471.749 595.01 502.388 659.029 444.357C724.897 384.652 700.579 222.554 633.603 159.381Z" fill="white"/>
</mask>
<g mask="url(#mask0_220_537)">
<path d="M579.832 160.547C579.832 160.547 604.362 159.311 612.559 176.376C619.516 190.86 612.959 198.485 615.873 206.282C618.787 214.079 628.124 216.068 624.111 227.115C620.098 238.161 634.955 237.684 633.515 249.475C632.075 261.265 624.269 261.851 633.325 268.197C642.38 274.543 649.563 293.798 638.655 300.845C623.023 310.944 584.729 279.527 557.459 287.898C530.189 296.269 502.033 285.399 505.157 274.609C508.281 263.819 525.677 260.679 520.563 251.306C515.45 241.933 512.505 229.901 520.945 221.025C529.385 212.149 525.951 212.73 526.093 201.471C526.181 194.547 531.642 186.247 534.201 178.745C537.272 169.741 538.345 166.035 549.713 161.017C567.885 152.996 579.832 160.547 579.832 160.547Z" fill="#442017"/>
</g>
<mask id="mask1_220_537" style="mask-type:luminance" maskUnits="userSpaceOnUse" x="307" y="137" width="391" height="340">
<path d="M633.603 159.381C572.853 102.081 368.033 168.337 314.94 234.612C288.111 268.101 346.809 390.914 356.096 417.291C366.825 447.764 433.704 405.165 459.597 423.574C515.39 471.749 595.01 502.388 659.029 444.357C724.897 384.652 700.579 222.554 633.603 159.381Z" fill="white"/>
</mask>
<g mask="url(#mask1_220_537)">
<path d="M582.226 162.794C582.226 162.794 584.092 141.559 607.921 149.979C631.75 158.399 629.767 187.154 603.308 187.053C576.848 186.952 582.226 162.794 582.226 162.794Z" fill="#442017"/>
</g>
<mask id="mask2_220_537" style="mask-type:luminance" maskUnits="userSpaceOnUse" x="307" y="137" width="391" height="340">
<path d="M633.603 159.381C572.853 102.081 368.033 168.337 314.94 234.612C288.111 268.101 346.809 390.914 356.096 417.291C366.825 447.764 433.704 405.165 459.597 423.574C515.39 471.749 595.01 502.388 659.029 444.357C724.897 384.652 700.579 222.554 633.603 159.381Z" fill="white"/>
</mask>
<g mask="url(#mask2_220_537)">
<path d="M615.286 185.893C615.408 185.913 615.534 185.916 615.661 185.898C616.232 185.816 616.589 185.343 616.457 184.842C616.392 184.596 609.68 160.176 581.705 159.617C581.119 159.605 580.664 160.007 580.688 160.515C580.711 161.023 581.206 161.451 581.792 161.456C607.997 161.989 614.14 184.193 614.389 185.139C614.49 185.529 614.859 185.822 615.286 185.893Z" fill="#FCF9ED"/>
</g>
<mask id="mask3_220_537" style="mask-type:luminance" maskUnits="userSpaceOnUse" x="307" y="137" width="391" height="340">
<path d="M633.603 159.381C572.853 102.081 368.033 168.337 314.94 234.612C288.111 268.101 346.809 390.914 356.096 417.291C366.825 447.764 433.704 405.165 459.597 423.574C515.39 471.749 595.01 502.388 659.029 444.357C724.897 384.652 700.579 222.554 633.603 159.381Z" fill="white"/>
</mask>
<g mask="url(#mask3_220_537)">
<path d="M580.083 178.831C580.083 178.831 582 197.459 586.439 201.97C590.879 206.481 596.877 198.732 596.877 198.732C596.877 198.732 591.727 169.771 580.083 178.831Z" fill="#442017"/>
<path d="M558.051 175.138C558.051 175.138 565.16 191.591 578.468 190.683C591.775 189.776 585.352 177.589 585.352 177.589C585.352 177.589 563.752 163.332 558.051 175.138Z" fill="#442017"/>
<path d="M561.666 174.603C561.666 174.603 551.682 192.159 539.96 186.492C528.238 180.825 549.31 165.714 557.423 168.096C565.534 170.477 561.666 174.603 561.666 174.603Z" fill="#442017"/>
<path d="M584.509 195.108C584.509 195.108 586.174 198.687 583.681 209.861C581.189 221.035 579.348 223.578 579.348 223.578C579.348 223.578 588.286 215.872 589.671 199.963C591.712 176.513 584.509 195.108 584.509 195.108Z" fill="#442017"/>
</g>
<mask id="mask4_220_537" style="mask-type:luminance" maskUnits="userSpaceOnUse" x="307" y="137" width="391" height="340">
<path d="M633.603 159.381C572.853 102.081 368.033 168.337 314.94 234.612C288.111 268.101 346.809 390.914 356.096 417.291C366.825 447.764 433.704 405.165 459.597 423.574C515.39 471.749 595.01 502.388 659.029 444.357C724.897 384.652 700.579 222.554 633.603 159.381Z" fill="white"/>
</mask>
<g mask="url(#mask4_220_537)">
<path d="M482.073 317.582L489.111 298.839C495.826 280.956 512.927 269.111 532.029 269.111H609.519C631.078 269.111 649.724 284.132 654.313 305.197L668.094 368.457L616.547 405.005L627.763 476.249C627.763 476.249 503.021 471.716 494.224 460.214L504.213 375.198L482.073 317.582Z" fill="#C1725C"/>
</g>
<mask id="mask5_220_537" style="mask-type:luminance" maskUnits="userSpaceOnUse" x="307" y="137" width="391" height="340">
<path d="M633.603 159.381C572.853 102.081 368.033 168.337 314.94 234.612C288.111 268.101 346.809 390.914 356.096 417.291C366.825 447.764 433.704 405.165 459.597 423.574C515.39 471.749 595.01 502.388 659.029 444.357C724.897 384.652 700.579 222.554 633.603 159.381Z" fill="white"/>
</mask>
<g mask="url(#mask5_220_537)">
<path d="M482.073 317.582L455.168 348.19L400.7 294.775L376.663 310.448C376.663 310.448 405.904 375.791 419.963 392.188C434.022 408.585 459.339 426.216 480.844 405.558L508.294 372.046L482.073 317.582Z" fill="#B76856"/>
</g>
<mask id="mask6_220_537" style="mask-type:luminance" maskUnits="userSpaceOnUse" x="307" y="137" width="391" height="340">
<path d="M633.603 159.381C572.853 102.081 368.033 168.337 314.94 234.612C288.111 268.101 346.809 390.914 356.096 417.291C366.825 447.764 433.704 405.165 459.597 423.574C515.39 471.749 595.01 502.388 659.029 444.357C724.897 384.652 700.579 222.554 633.603 159.381Z" fill="white"/>
</mask>
<g mask="url(#mask6_220_537)">
<path d="M463.428 363.261C463.586 363.261 463.746 363.221 463.892 363.135C464.331 362.878 464.478 362.314 464.222 361.876L455.205 346.474C454.948 346.034 454.382 345.887 453.946 346.144C453.507 346.401 453.36 346.965 453.616 347.403L462.633 362.805C462.804 363.099 463.111 363.261 463.428 363.261Z" fill="#7D351D"/>
</g>
<mask id="mask7_220_537" style="mask-type:luminance" maskUnits="userSpaceOnUse" x="307" y="137" width="391" height="340">
<path d="M633.603 159.381C572.853 102.081 368.033 168.337 314.94 234.612C288.111 268.101 346.809 390.914 356.096 417.291C366.825 447.764 433.704 405.165 459.597 423.574C515.39 471.749 595.01 502.388 659.029 444.357C724.897 384.652 700.579 222.554 633.603 159.381Z" fill="white"/>
</mask>
<g mask="url(#mask7_220_537)">
<path d="M482.073 317.582C482.073 317.582 487.616 300.684 490.644 294.775C502.444 271.753 515.073 268.656 533.343 269.111C540.436 269.288 552.614 325.72 552.614 325.72C552.614 325.72 581.272 270.003 592.746 269.111C612.906 267.544 642.3 268.273 653.14 300.848L673.918 365.367L610.051 367.974L627.968 476.849C627.968 476.849 508.041 477.989 494.225 460.213L504.214 371.196L482.073 317.582Z" fill="#6059C9"/>
</g>
<mask id="mask8_220_537" style="mask-type:luminance" maskUnits="userSpaceOnUse" x="307" y="137" width="391" height="340">
<path d="M633.603 159.381C572.853 102.081 368.033 168.337 314.94 234.612C288.111 268.101 346.809 390.914 356.096 417.291C366.825 447.764 433.704 405.165 459.597 423.574C515.39 471.749 595.01 502.388 659.029 444.357C724.897 384.652 700.579 222.554 633.603 159.381Z" fill="white"/>
</mask>
<g mask="url(#mask8_220_537)">
<path d="M601.415 207.134L597.432 206.135L590.808 213.828C588.408 216.615 583.85 214.624 584.263 210.97L586.357 192.433C586.739 189.052 582.826 186.912 580.185 189.056L575.071 193.209L570.378 192.024C564.832 190.624 560.857 185.759 560.59 180.045L560.458 177.214C557.702 183.432 550.613 186.469 544.211 184.172L544.076 184.124L531.28 215.598C526.243 227.987 530.776 241.782 541.378 248.408L539.9 263.703C538.746 275.652 547.868 286.4 560.172 287.589L560.682 287.638C572.986 288.827 567.832 288.642 568.986 276.693L582.032 276.874L589.052 230.988L595.049 232.492C601.945 234.221 609.005 229.995 610.739 223.1L610.809 222.822C612.541 215.924 608.315 208.864 601.415 207.134Z" fill="#C1725C"/>
<path d="M538.108 202.345C537.582 203.624 538.192 205.088 539.471 205.613C540.75 206.139 542.213 205.529 542.739 204.25C543.265 202.971 542.655 201.508 541.376 200.981C540.097 200.455 538.634 201.066 538.108 202.345Z" fill="#111111"/>
<path d="M557.76 207.441C557.555 208.94 558.605 210.322 560.104 210.527C561.604 210.732 562.985 209.683 563.19 208.183C563.395 206.683 562.346 205.302 560.846 205.097C559.347 204.892 557.965 205.942 557.76 207.441Z" fill="#111111"/>
<path d="M545.408 237.88C545.511 237.933 545.632 237.951 545.755 237.925C545.879 237.898 548.829 237.292 550.377 239.839C550.526 240.085 550.846 240.163 551.093 240.014C551.339 239.864 551.418 239.544 551.269 239.298C549.326 236.104 545.568 236.899 545.53 236.907C545.25 236.97 545.074 237.247 545.136 237.528C545.169 237.686 545.273 237.812 545.408 237.88Z" fill="#7D351D"/>
<path d="M572.157 200.123C571.145 200.164 570.064 199.623 568.989 199.161C567.916 198.673 566.827 198.209 565.866 197.84C564.903 197.469 563.783 197.081 562.66 196.724C561.552 196.345 560.382 196.018 559.671 195.315C558.98 194.648 559.029 193.518 560.481 192.664C561.86 191.82 564.764 191.442 567.952 192.661C571.131 193.894 572.992 196.106 573.414 197.643C573.878 199.236 573.128 200.096 572.157 200.123Z" fill="#442017"/>
<path d="M537.641 191.781C538.268 192.121 539.102 192.061 539.909 192.056C540.722 192.031 541.539 192.03 542.248 192.057C542.959 192.083 543.773 192.147 544.582 192.232C545.387 192.298 546.216 192.42 546.861 192.128C547.483 191.857 547.767 191.024 547.089 189.959C546.453 188.924 544.725 187.76 542.373 187.665C540.023 187.583 538.232 188.614 537.538 189.599C536.801 190.61 537.036 191.463 537.641 191.781Z" fill="#381812"/>
<path d="M562.638 211.214C562.638 211.214 560.614 208.982 557.854 210.535L562.638 211.214Z" fill="#C1725C"/>
<path d="M557.653 211.477C557.392 211.421 557.155 211.258 557.014 211.007C556.753 210.543 556.918 209.955 557.382 209.694C560.1 208.165 562.476 209.598 563.353 210.566C563.71 210.96 563.681 211.57 563.287 211.928C562.893 212.284 562.284 212.256 561.927 211.865C561.764 211.69 560.323 210.254 558.328 211.374C558.115 211.495 557.876 211.525 557.653 211.477Z" fill="#7D351D"/>
<path d="M541.361 205.623C541.361 205.623 540.094 204.314 538.498 205.43L541.361 205.623Z" fill="#C1725C"/>
<path d="M538.296 206.372C538.066 206.323 537.854 206.19 537.707 205.981C537.402 205.545 537.509 204.944 537.944 204.638C539.742 203.381 541.415 204.292 542.052 204.952C542.423 205.335 542.413 205.945 542.03 206.316C541.647 206.684 541.041 206.671 540.675 206.301C540.499 206.132 539.879 205.638 539.05 206.22C538.822 206.379 538.548 206.426 538.296 206.372Z" fill="#7D351D"/>
<path d="M559.637 219.886C558.922 219.154 557.786 219.053 556.903 219.571C555.295 220.514 551.901 222.071 547.618 221.601C546.566 221.486 545.779 222.569 546.02 223.599C546.551 225.864 549.22 232.762 555.179 231.383C562.439 229.7 561.499 221.795 559.637 219.886Z" fill="white"/>
<path d="M550.767 199.863L547.673 209.645L545.121 209.265C544.055 208.88 542.879 209.433 542.494 210.499L541.854 212.273C541.328 213.729 542.072 215.338 543.522 215.88L547.922 217.525" fill="#C1725C"/>
<path d="M547.722 218.468C547.676 218.458 547.629 218.444 547.584 218.428L543.183 216.783C541.249 216.059 540.245 213.889 540.947 211.946L541.587 210.173C541.859 209.415 542.413 208.809 543.143 208.466C543.871 208.122 544.693 208.081 545.448 208.358L547 208.577L549.847 199.572C550.01 199.065 550.563 198.785 551.058 198.944C551.565 199.105 551.848 199.647 551.687 200.154L548.344 210.72L544.979 210.219C544.519 210.075 544.225 210.087 543.962 210.211C543.699 210.335 543.5 210.553 543.401 210.827L542.761 212.6C542.418 213.555 542.91 214.621 543.86 214.977L548.261 216.623C548.76 216.81 549.013 217.365 548.825 217.864C548.656 218.316 548.181 218.566 547.722 218.468Z" fill="#7D351D"/>
<path d="M598.603 224.519C598.426 224.481 598.258 224.393 598.12 224.256L594.571 220.683C594.373 220.483 594.272 220.207 594.294 219.926C594.317 219.646 594.461 219.389 594.689 219.224L600.148 215.262C600.579 214.949 601.182 215.048 601.495 215.475C601.809 215.906 601.713 216.51 601.282 216.822L596.733 220.123L599.49 222.898C599.866 223.276 599.862 223.887 599.485 224.261C599.245 224.498 598.911 224.585 598.603 224.519Z" fill="#7D351D"/>
<path d="M541.345 248.725C541.345 248.725 564.024 255.429 570.472 247.636C570.472 247.636 567.837 262.406 540.054 262.084L541.345 248.725Z" fill="#7D351D"/>
<path d="M596.132 238.326C593.152 237.688 591.14 234.825 591.601 231.775C592.079 228.606 595.048 226.416 598.22 226.894C601.363 227.378 603.582 230.338 603.103 233.509C602.872 235.045 602.057 236.398 600.806 237.321C599.557 238.243 598.023 238.623 596.486 238.391C596.368 238.373 596.25 238.351 596.132 238.326Z" fill="#467B6C"/>
<path d="M574.041 220.091C573.699 221.69 571.259 222.522 568.593 221.951C565.926 221.38 564.042 219.621 564.384 218.023C564.726 216.424 567.166 215.591 569.832 216.163C572.499 216.733 574.383 218.492 574.041 220.091Z" fill="#7D351D"/>
</g>
<mask id="mask9_220_537" style="mask-type:luminance" maskUnits="userSpaceOnUse" x="307" y="137" width="391" height="340">
<path d="M633.603 159.381C572.853 102.081 368.033 168.337 314.94 234.612C288.111 268.101 346.809 390.914 356.096 417.291C366.825 447.764 433.704 405.165 459.597 423.574C515.39 471.749 595.01 502.388 659.029 444.357C724.897 384.652 700.579 222.554 633.603 159.381Z" fill="white"/>
</mask>
<g mask="url(#mask9_220_537)">
<g opacity="0.2">
<mask id="mask10_220_537" style="mask-type:luminance" maskUnits="userSpaceOnUse" x="482" y="268" width="192" height="209">
<path d="M482.073 317.582C482.073 317.582 487.616 300.684 490.644 294.775C502.444 271.753 515.073 268.656 533.343 269.111C540.436 269.288 552.614 325.72 552.614 325.72C552.614 325.72 581.272 270.003 592.746 269.111C612.906 267.544 642.3 268.273 653.14 300.848L673.918 365.367L610.051 367.974L627.968 476.849C627.968 476.849 508.041 477.989 494.225 460.213L504.214 371.196L482.073 317.582Z" fill="white"/>
</mask>
<g mask="url(#mask10_220_537)">
<path d="M673.487 288.878H477.105C473.692 288.878 470.925 286.112 470.925 282.698C470.925 279.285 473.692 276.518 477.105 276.518H673.486C676.899 276.518 679.666 279.285 679.666 282.698C679.667 286.111 676.9 288.878 673.487 288.878Z" fill="#F2EAE1"/>
<path d="M673.487 324.538H477.105C473.692 324.538 470.925 321.771 470.925 318.358C470.925 314.945 473.692 312.178 477.105 312.178H673.486C676.899 312.178 679.666 314.945 679.666 318.358C679.667 321.77 676.9 324.538 673.487 324.538Z" fill="#F2EAE1"/>
<path d="M673.487 360.198H477.105C473.692 360.198 470.925 357.431 470.925 354.018C470.925 350.605 473.692 347.838 477.105 347.838H673.486C676.899 347.838 679.666 350.605 679.666 354.018C679.667 357.431 676.9 360.198 673.487 360.198Z" fill="#F2EAE1"/>
<path d="M673.487 395.858H477.105C473.692 395.858 470.925 393.091 470.925 389.678C470.925 386.264 473.692 383.498 477.105 383.498H673.486C676.899 383.498 679.666 386.264 679.666 389.678C679.667 393.091 676.9 395.858 673.487 395.858Z" fill="#F2EAE1"/>
<path d="M673.487 431.518H477.105C473.692 431.518 470.925 428.751 470.925 425.338C470.925 421.924 473.692 419.158 477.105 419.158H673.486C676.899 419.158 679.666 421.924 679.666 425.338C679.667 428.751 676.9 431.518 673.487 431.518Z" fill="#F2EAE1"/>
<path d="M673.487 467.177H477.105C473.692 467.177 470.925 464.411 470.925 460.998C470.925 457.584 473.692 454.818 477.105 454.818H673.486C676.899 454.818 679.666 457.584 679.666 460.998C679.667 464.411 676.9 467.177 673.487 467.177Z" fill="#F2EAE1"/>
</g>
</g>
</g>
<mask id="mask11_220_537" style="mask-type:luminance" maskUnits="userSpaceOnUse" x="307" y="137" width="391" height="340">
<path d="M633.603 159.381C572.853 102.081 368.033 168.337 314.94 234.612C288.111 268.101 346.809 390.914 356.096 417.291C366.825 447.764 433.704 405.165 459.597 423.574C515.39 471.749 595.01 502.388 659.029 444.357C724.897 384.652 700.579 222.554 633.603 159.381Z" fill="white"/>
</mask>
<g mask="url(#mask11_220_537)">
<path d="M507.323 380.414C507.005 380.414 506.701 380.23 506.565 379.92L501.589 368.584C497.838 360.038 497.594 350.524 500.902 341.794L506.855 326.098C507.018 325.671 507.493 325.455 507.923 325.618C508.35 325.78 508.564 326.257 508.403 326.684L502.45 342.38C499.295 350.702 499.528 359.772 503.104 367.918L508.08 379.254C508.263 379.672 508.074 380.16 507.655 380.345C507.547 380.391 507.434 380.414 507.323 380.414Z" fill="#322380"/>
</g>
<mask id="mask12_220_537" style="mask-type:luminance" maskUnits="userSpaceOnUse" x="307" y="137" width="391" height="340">
<path d="M633.603 159.381C572.853 102.081 368.033 168.337 314.94 234.612C288.111 268.101 346.809 390.914 356.096 417.291C366.825 447.764 433.704 405.165 459.597 423.574C515.39 471.749 595.01 502.388 659.029 444.357C724.897 384.652 700.579 222.554 633.603 159.381Z" fill="white"/>
</mask>
<g mask="url(#mask12_220_537)">
<path d="M487.614 364.085C485.043 364.153 482.828 364.99 482.561 368.042C481.446 373.438 486.178 375.528 490.641 375.977C486.311 376.817 488.645 383.861 494.052 385.886L522.808 398.358C524.577 399.178 526.933 399.392 529.481 399.267L627.301 437.85C651.846 447.131 677.517 427.162 674.561 401.088L667.663 366.279L610.05 367.974L613.188 384.235L544.137 362.401C542.791 360.114 541.291 357.913 539.64 355.882C539.64 355.882 523.183 339.133 516.59 334.566C515.883 334.076 515.15 333.593 514.32 333.368C513.49 333.143 512.535 333.215 511.866 333.755C510.995 334.458 510.838 335.715 510.876 336.834C510.994 340.306 512.335 343.577 513.673 346.806C510.798 345.849 507.729 344.806 504.387 343.622C497.163 341.631 485.653 336.886 483.601 346.488C483.173 349.882 485.507 351.356 488.252 352.026C484.218 351.835 480.179 352.715 480.257 357.742C479.672 362.29 483.545 363.572 487.614 364.085ZM492.417 364.498C493.084 364.555 493.697 364.62 494.224 364.712C493.691 364.67 493.077 364.589 492.417 364.498Z" fill="#C1725C"/>
<path d="M612.913 383.736C612.971 383.736 613.029 383.731 613.088 383.719C613.587 383.623 613.914 383.14 613.817 382.641L610.808 367.047L603.306 367.107C603.298 367.107 603.291 367.107 603.283 367.107C601.849 367.107 600.678 365.991 600.612 364.557L598.629 322.308C598.606 321.799 598.18 321.397 597.666 321.432C597.158 321.456 596.766 321.887 596.79 322.395L598.773 364.644C598.886 367.079 600.869 368.998 603.322 368.948L609.292 368.9L612.012 382.99C612.096 383.43 612.481 383.736 612.913 383.736Z" fill="#322380"/>
<path opacity="0.5" d="M513.673 346.805L529.321 353.54C529.321 353.54 514.451 341.805 511.514 340.845L513.673 346.805Z" fill="#AF4E4A"/>
<path d="M497.853 355.919C498.236 355.919 498.593 355.679 498.724 355.297C498.889 354.816 498.632 354.293 498.152 354.128C497.17 353.792 488.515 350.839 486.79 350.747C486.307 350.674 485.849 351.107 485.821 351.616C485.794 352.123 486.183 352.557 486.691 352.585C487.798 352.645 493.942 354.632 497.555 355.87C497.654 355.903 497.754 355.919 497.853 355.919Z" fill="#7D351D"/>
<path d="M623.427 388.762C623.812 388.762 624.17 388.519 624.3 388.134C624.462 387.652 624.202 387.131 623.719 386.969L604.305 380.461C603.825 380.303 603.301 380.559 603.14 381.042C602.978 381.524 603.238 382.045 603.721 382.207L623.135 388.715C623.231 388.747 623.33 388.762 623.427 388.762Z" fill="#7D351D"/>
<path d="M495.56 367.709C495.948 367.709 496.309 367.461 496.435 367.072C496.591 366.589 496.326 366.07 495.843 365.914L487.05 363.071C486.565 362.915 486.047 363.181 485.891 363.663C485.735 364.146 486 364.665 486.483 364.822L495.276 367.665C495.371 367.694 495.466 367.709 495.56 367.709Z" fill="#7D351D"/>
<path d="M495.412 378.323C495.808 378.323 496.174 378.065 496.294 377.666C496.44 377.179 496.163 376.667 495.676 376.521L490.905 375.095C490.424 374.95 489.906 375.226 489.76 375.713C489.614 376.2 489.891 376.713 490.378 376.858L495.149 378.284C495.236 378.31 495.325 378.323 495.412 378.323Z" fill="#7D351D"/>
</g>
<mask id="mask13_220_537" style="mask-type:luminance" maskUnits="userSpaceOnUse" x="307" y="137" width="391" height="340">
<path d="M633.603 159.381C572.853 102.081 368.033 168.337 314.94 234.612C288.111 268.101 346.809 390.914 356.096 417.291C366.825 447.764 433.704 405.165 459.597 423.574C515.39 471.749 595.01 502.388 659.029 444.357C724.897 384.652 700.579 222.554 633.603 159.381Z" fill="white"/>
</mask>
<g mask="url(#mask13_220_537)">
<path d="M387.92 280.684L403.373 297.395L392.925 303.958L384.457 296.533L387.92 280.684Z" fill="#B76856"/>
</g>
<mask id="mask14_220_537" style="mask-type:luminance" maskUnits="userSpaceOnUse" x="307" y="137" width="391" height="340">
<path d="M633.603 159.381C572.853 102.081 368.033 168.337 314.94 234.612C288.111 268.101 346.809 390.914 356.096 417.291C366.825 447.764 433.704 405.165 459.597 423.574C515.39 471.749 595.01 502.388 659.029 444.357C724.897 384.652 700.579 222.554 633.603 159.381Z" fill="white"/>
</mask>
<g mask="url(#mask14_220_537)">
<path d="M394.628 318.196H351.744C350.304 318.196 349.137 317.029 349.137 315.589V238.382C349.137 236.942 350.304 235.775 351.744 235.775H394.627C396.067 235.775 397.234 236.942 397.234 238.382V315.589C397.234 317.029 396.067 318.196 394.628 318.196Z" fill="#2B2B39"/>
<path d="M394.218 241.92V312.051C394.218 313.34 393.391 314.385 392.371 314.385H354.001C352.981 314.385 352.154 313.34 352.154 312.051V241.92C352.154 240.631 352.981 239.585 354.001 239.585H392.371C393.391 239.585 394.218 240.631 394.218 241.92Z" fill="#5F5F75"/>
<path d="M367.702 294.268C367.656 297.438 365.025 299.994 361.856 299.948L343.756 299.687C340.587 299.641 338.03 297.01 338.076 293.84C338.122 290.671 340.753 288.115 343.922 288.16L362.022 288.421C365.191 288.467 367.747 291.098 367.702 294.268Z" fill="#B76856"/>
<path d="M368.064 282.648C368.018 285.818 365.387 288.374 362.218 288.328L342.68 288.046C339.51 288 336.954 285.369 337 282.2C337.046 279.031 339.676 276.474 342.846 276.52L362.384 276.802C365.553 276.847 368.109 279.478 368.064 282.648Z" fill="#B76856"/>
<path d="M398.201 300.358C395.936 302.575 392.268 302.536 390.05 300.271L376.381 286.308C374.163 284.042 374.203 280.375 376.467 278.157H376.468C378.733 275.94 382.401 275.979 384.618 278.244L398.287 292.207C400.505 294.472 400.466 298.14 398.201 300.358Z" fill="#B76856"/>
<path d="M363.634 305.581C363.588 308.751 360.957 311.307 357.787 311.261L346.033 311.092C342.863 311.046 340.307 308.415 340.353 305.245C340.399 302.075 343.03 299.519 346.199 299.565L357.953 299.735C361.124 299.781 363.68 302.412 363.634 305.581Z" fill="#B76856"/>
<path d="M363.363 316.553C363.317 319.723 360.686 322.279 357.517 322.233L351.728 322.15C348.558 322.104 346.002 319.473 346.048 316.304C346.094 313.135 348.724 310.578 351.894 310.624L357.682 310.708C360.853 310.752 363.409 313.383 363.363 316.553Z" fill="#B76856"/>
<path d="M342.644 288.539C342.642 288.515 342.642 288.491 342.642 288.465C342.644 287.896 343.108 287.437 343.677 287.44L362.086 287.525C362.654 287.526 363.13 287.976 363.111 288.56C363.109 289.129 362.645 289.588 362.076 289.585L343.667 289.5C343.123 289.498 342.679 289.074 342.644 288.539Z" fill="#7D351D"/>
<path d="M342.716 300.576C342.714 300.55 342.714 300.524 342.714 300.496C342.72 299.927 343.187 299.471 343.756 299.477L360.664 299.659C361.232 299.665 361.691 300.123 361.683 300.7C361.677 301.269 361.211 301.725 360.642 301.719L343.734 301.536C343.191 301.532 342.751 301.108 342.716 300.576Z" fill="#7D351D"/>
<path d="M345.548 311.666C345.547 311.649 345.546 311.632 345.546 311.615C345.537 311.046 345.99 310.578 346.559 310.568L359.844 310.343C360.412 310.335 360.882 310.795 360.892 311.356C360.901 311.925 360.448 312.393 359.879 312.403L346.594 312.628C346.041 312.638 345.584 312.212 345.548 311.666Z" fill="#7D351D"/>
</g>
<path d="M445.825 226.785C448.594 229.449 450.86 228.485 450.86 224.642V212.251C450.86 208.409 454.004 205.265 457.846 205.265H496.057C499.899 205.265 503.043 202.121 503.043 198.279V149.305C503.043 145.463 499.899 142.319 496.057 142.319H363.024C359.181 142.319 356.038 145.463 356.038 149.305V198.279C356.038 202.121 359.182 205.265 363.024 205.265H416.464C420.306 205.265 425.717 207.444 428.486 210.108L445.825 226.785Z" fill="#F0C86A"/>
<path d="M371.224 162.15H487.859C489.252 162.15 490.381 161.021 490.381 159.628C490.381 158.235 489.252 157.106 487.859 157.106H371.224C369.831 157.106 368.702 158.235 368.702 159.628C368.702 161.021 369.831 162.15 371.224 162.15Z" fill="white"/>
<path d="M371.224 174.726H487.859C489.252 174.726 490.381 173.597 490.381 172.204C490.381 170.811 489.252 169.682 487.859 169.682H371.224C369.831 169.682 368.702 170.811 368.702 172.204C368.702 173.597 369.831 174.726 371.224 174.726Z" fill="white"/>
<path d="M371.224 187.301H453.599C454.992 187.301 456.121 186.172 456.121 184.779C456.121 183.386 454.992 182.257 453.599 182.257H371.224C369.831 182.257 368.702 183.386 368.702 184.779C368.702 186.172 369.831 187.301 371.224 187.301Z" fill="white"/>
<g opacity="0.4">
<path d="M241.222 300.761C171.721 349.771 63.896 344.513 17.084 270.566C-6.57097 233.2 -2.48697 184.648 10.247 159.474C49.865 81.1532 208.333 -27.6198 302.287 79.2742C363.058 148.414 317.846 246.727 241.222 300.761Z" fill="#CCC0B2"/>
</g>
<mask id="mask15_220_537" style="mask-type:luminance" maskUnits="userSpaceOnUse" x="0" y="0" width="331" height="333">
<path d="M241.222 300.761C171.721 349.771 63.896 344.513 17.084 270.566C-6.57097 233.2 -2.48697 184.648 10.247 159.474C26.911 126.531 51.495 38.559 96.567 13.156C158.653 -21.836 247.851 17.341 302.287 79.274C363.058 148.414 317.846 246.727 241.222 300.761Z" fill="white"/>
</mask>
<g mask="url(#mask15_220_537)">
<path d="M210.083 185.938L236.364 215.836L289.568 163.66L313.048 178.97L270.752 258.814C263.735 285.855 228.986 293.486 211.283 271.874L184.47 239.139L210.083 185.938Z" fill="#E69773"/>
<path d="M228.296 230.558C228.142 230.558 227.985 230.519 227.843 230.435C227.415 230.184 227.271 229.633 227.521 229.205L236.329 214.16C236.58 213.73 237.132 213.587 237.559 213.838C237.987 214.089 238.131 214.64 237.881 215.068L229.073 230.113C228.906 230.399 228.605 230.558 228.296 230.558Z" fill="#AF4E4A"/>
<path d="M289.758 166.014L289.688 166.011C289.525 165.205 289.362 164.4 289.199 163.594L289.196 163.583C286.608 150.807 279.828 136.739 277.169 123.978C276.971 123.03 276.773 122.061 276.891 121.1C277.066 119.681 277.976 118.374 279.244 117.716C280.513 117.057 282.105 117.068 283.366 117.742C284.841 118.531 285.748 120.082 286.347 121.644C287.136 123.703 287.88 125.77 288.686 127.824C289.479 129.843 292.465 129.366 292.588 127.199C293.036 119.313 293.475 111.427 293.903 103.54C293.987 101.985 294.129 100.29 295.197 99.1572C296.655 97.6102 299.624 98.0372 300.588 99.9312C300.979 100.7 301.056 101.585 301.127 102.445C301.567 107.822 302.235 113.184 302.448 118.575C302.613 122.767 303.344 125.418 303.199 128.465C303.247 127.465 303.189 125.976 303.237 124.976C303.53 118.92 303.894 112.874 303.935 106.817C303.941 105.875 304.313 104.805 304.813 104.006C305.142 103.48 305.638 103.056 306.217 102.833C306.797 102.61 307.467 102.595 308.033 102.853C308.699 103.154 309.162 103.795 309.411 104.482C309.839 105.66 310.09 106.912 310.146 108.157C310.307 111.734 310.441 115.313 310.615 118.89C310.792 122.534 310.679 126.286 311.101 129.911C310.985 128.907 311.18 127.81 311.274 126.812C311.471 124.716 311.717 122.625 311.987 120.537C312.257 118.443 312.316 115.923 313.979 114.39C314.682 113.742 315.756 113.369 316.603 113.81C316.993 114.013 317.29 114.365 317.501 114.75C318.2 116.025 318.051 117.581 317.99 118.98C317.931 120.345 317.874 121.71 317.817 123.075C317.7 125.836 317.58 128.597 317.424 131.356C317.355 132.935 317.287 134.514 317.218 136.092L319.02 130.352C319.677 128.137 321.948 124.606 324.034 125.6C325.233 126.172 325.834 127.534 325.448 128.805L317.611 163.603" fill="#E69773"/>
<path d="M289.758 166.014L289.688 166.011C289.525 165.205 289.362 164.4 289.199 163.594L289.196 163.583C286.608 150.807 279.828 136.739 277.169 123.978C276.971 123.03 276.773 122.061 276.891 121.1C277.066 119.681 277.976 118.374 279.244 117.716C280.513 117.057 282.105 117.068 283.366 117.742C284.841 118.531 285.748 120.082 286.347 121.644C287.136 123.703 287.88 125.77 288.686 127.824C289.479 129.843 292.465 129.366 292.588 127.199C293.036 119.313 293.475 111.427 293.903 103.54C293.987 101.985 294.129 100.29 295.197 99.1572C296.655 97.6102 299.624 98.0372 300.588 99.9312C300.979 100.7 301.056 101.585 301.127 102.445C301.567 107.822 302.235 113.184 302.448 118.575C302.613 122.767 303.344 125.418 303.199 128.465C303.247 127.465 303.189 125.976 303.237 124.976C303.53 118.92 303.894 112.874 303.935 106.817C303.941 105.875 304.313 104.805 304.813 104.006C305.142 103.48 305.638 103.056 306.217 102.833C306.797 102.61 307.467 102.595 308.033 102.853C308.699 103.154 309.162 103.795 309.411 104.482C309.839 105.66 310.09 106.912 310.146 108.157C310.307 111.734 310.441 115.313 310.615 118.89C310.792 122.534 310.679 126.286 311.101 129.911C310.985 128.907 311.18 127.81 311.274 126.812C311.471 124.716 311.717 122.625 311.987 120.537C312.257 118.443 312.316 115.923 313.979 114.39C314.682 113.742 315.756 113.369 316.603 113.81C316.993 114.013 317.29 114.365 317.501 114.75C318.2 116.025 318.051 117.581 317.99 118.98C317.931 120.345 317.874 121.71 317.817 123.075C317.7 125.836 317.58 128.597 317.424 131.356C317.355 132.935 317.287 134.514 317.218 136.092L319.02 130.352C319.677 128.137 321.948 124.606 324.034 125.6C325.233 126.172 325.834 127.534 325.448 128.805L317.611 163.603L313.048 178.972L289.758 166.014Z" fill="#E69773"/>
<path d="M297.089 144.551C296.981 144.587 296.867 144.602 296.745 144.595C296.512 144.578 296.299 144.471 296.145 144.294C295.992 144.116 295.917 143.89 295.934 143.657C296.67 133.306 289.154 129.539 288.833 129.383C288.623 129.28 288.464 129.102 288.389 128.881C288.311 128.659 288.326 128.421 288.427 128.213C288.528 128 288.706 127.841 288.928 127.765C289.15 127.687 289.387 127.702 289.593 127.802C289.683 127.844 298.498 132.317 297.683 143.782C297.666 144.029 297.547 144.251 297.362 144.401C297.282 144.466 297.19 144.517 297.089 144.551Z" fill="#AF4E4A"/>
<path d="M110.796 100.93C119.217 100.93 126.044 94.1033 126.044 85.6821C126.044 77.2608 119.217 70.4341 110.796 70.4341C102.375 70.4341 95.5481 77.2608 95.5481 85.6821C95.5481 94.1033 102.375 100.93 110.796 100.93Z" fill="#6059C9"/>
<path d="M102.249 83.9091C110.67 83.9091 117.497 77.0823 117.497 68.6611C117.497 60.2398 110.67 53.4131 102.249 53.4131C93.8279 53.4131 87.0011 60.2398 87.0011 68.6611C87.0011 77.0823 93.8279 83.9091 102.249 83.9091Z" fill="#6059C9"/>
<path d="M101.556 61.0238C109.977 61.0238 116.804 54.1971 116.804 45.7758C116.804 37.3546 109.977 30.5278 101.556 30.5278C93.1349 30.5278 86.3081 37.3546 86.3081 45.7758C86.3081 54.1971 93.1349 61.0238 101.556 61.0238Z" fill="#6059C9"/>
<path d="M112.804 44.4408C121.225 44.4408 128.052 37.6141 128.052 29.1928C128.052 20.7716 121.225 13.9448 112.804 13.9448C104.383 13.9448 97.556 20.7716 97.556 29.1928C97.556 37.6141 104.383 44.4408 112.804 44.4408Z" fill="#6059C9"/>
<path d="M133.165 35.4652C141.586 35.4652 148.413 28.6385 148.413 20.2172C148.413 11.796 141.586 4.96924 133.165 4.96924C124.744 4.96924 117.917 11.796 117.917 20.2172C117.917 28.6385 124.744 35.4652 133.165 35.4652Z" fill="#6059C9"/>
<path d="M158.492 33.686C166.312 30.5617 170.118 21.6897 166.994 13.8697C163.87 6.04973 154.998 2.24313 147.178 5.36741C139.358 8.49169 135.551 17.3637 138.675 25.1837C141.8 33.0037 150.672 36.8103 158.492 33.686Z" fill="#6059C9"/>
<path d="M172.82 43.4032C181.241 43.4032 188.068 36.5765 188.068 28.1552C188.068 19.734 181.241 12.9072 172.82 12.9072C164.399 12.9072 157.572 19.734 157.572 28.1552C157.572 36.5765 164.399 43.4032 172.82 43.4032Z" fill="#6059C9"/>
<path d="M183.336 57.0712C191.757 57.0712 198.584 50.2444 198.584 41.8232C198.584 33.402 191.757 26.5752 183.336 26.5752C174.915 26.5752 168.088 33.402 168.088 41.8232C168.088 50.2444 174.915 57.0712 183.336 57.0712Z" fill="#6059C9"/>
<path d="M229.539 196.73L186.591 156.399C179.473 147.648 168.756 141.951 156.678 141.596L90.6451 139.656C89.9751 139.656 89.315 139.7 88.6581 139.751L88.5851 139.65L76.2111 139.886C58.0091 140.232 41.2311 150.947 34.3581 167.806C33.4461 170.044 32.703 172.372 32.147 174.781L20.6951 226.513C19.8911 230.146 22.5861 233.615 26.3051 233.734L59.576 234.799L52.09 330.665H201.204L197.793 239.829L229.811 206.024C232.31 203.385 232.189 199.217 229.539 196.73Z" fill="#D03F23"/>
<path d="M169.165 57.5991C164.435 57.0751 160.081 48.9661 160.081 48.9661C160.081 48.9661 130.711 47.7421 129.658 43.7041L126.993 67.7661L119.852 66.9751L113.582 66.2811C112.586 66.1711 111.607 66.2011 110.654 66.3311C105.324 67.0581 100.928 71.3301 100.31 76.9051L100.181 78.0711C99.4531 84.6421 104.234 90.6151 110.805 91.3421L113.994 91.6951L106.383 131.229C104.158 142.788 111.724 153.962 123.283 156.187L125.325 156.58C136.884 158.805 148.058 151.239 150.283 139.68L153.15 124.789C163.71 125.781 173.155 118.137 174.327 107.555L179.498 60.8701C179.618 59.7901 179.623 56.4381 179.568 55.3871C177.977 55.8961 176.259 58.3841 174.491 58.1881L169.165 57.5991Z" fill="#E69773"/>
<path d="M110.307 83.2625C110.015 83.2305 109.745 83.0555 109.602 82.7735C109.378 82.3305 109.556 81.7895 110 81.5655L113.458 79.8195L110.228 75.3105C109.939 74.9075 110.032 74.3455 110.436 74.0565C110.836 73.7675 111.399 73.8595 111.69 74.2645L115.531 79.6265C115.684 79.8395 115.735 80.1095 115.673 80.3645C115.61 80.6195 115.44 80.8345 115.205 80.9535L110.809 83.1725C110.649 83.2525 110.474 83.2805 110.307 83.2625Z" fill="#AF4E4A"/>
<path d="M156.869 90.3201L153.521 89.9491C153.027 89.8941 152.672 89.4501 152.726 88.9561C152.781 88.4621 153.225 88.1071 153.719 88.1611L157.067 88.5321C158.008 88.6361 158.942 88.3211 159.627 87.6661C160.312 87.0121 160.67 86.0951 160.609 85.1501L159.842 73.1661C159.81 72.6711 160.187 72.2441 160.683 72.2121C161.177 72.1821 161.605 72.5571 161.637 73.0531L162.404 85.0351C162.499 86.5111 161.939 87.9451 160.868 88.9661C159.798 89.9891 158.34 90.4821 156.869 90.3201Z" fill="#AF4E4A"/>
<path d="M171.166 81.1793C171.259 82.5293 170.241 83.6983 168.892 83.7913C167.543 83.8843 166.373 82.8663 166.28 81.5173C166.187 80.1683 167.205 78.9983 168.554 78.9053C169.904 78.8123 171.073 79.8303 171.166 81.1793Z" fill="#111111"/>
<path d="M152.349 111.777C152.237 111.794 152.119 111.773 152.013 111.711C151.907 111.648 149.356 110.174 147.134 112.06C146.92 112.242 146.599 112.215 146.415 112.001C146.233 111.786 146.259 111.465 146.473 111.282C149.262 108.919 152.503 110.817 152.536 110.836C152.776 110.981 152.854 111.292 152.71 111.533C152.631 111.67 152.495 111.755 152.349 111.777Z" fill="#AF4E4A"/>
<path d="M136.321 68.8003C137.549 69.2643 139.102 69.0433 140.613 68.9143C142.134 68.7533 143.664 68.6293 144.998 68.5683C146.335 68.5063 147.872 68.4873 149.401 68.5083C150.919 68.4963 152.494 68.5723 153.656 67.9983C154.78 67.4603 155.183 66.0503 153.746 64.4043C152.394 62.8003 148.975 61.1463 144.552 61.3403C140.135 61.5553 136.938 63.5153 135.79 65.2343C134.566 67.0043 135.137 68.3693 136.321 68.8003Z" fill="#2B2B39"/>
<path d="M177.748 73.5382C176.837 73.6992 175.835 73.2852 174.844 72.9482C173.853 72.5852 172.849 72.2482 171.964 71.9912C171.079 71.7332 170.05 71.4762 169.019 71.2512C168.002 71.0022 166.931 70.8132 166.257 70.1892C165.602 69.6012 165.594 68.4592 166.865 67.4272C168.071 66.4142 170.674 65.6892 173.608 66.5352C176.534 67.3962 178.316 69.4002 178.767 70.8962C179.26 72.4412 178.622 73.3952 177.748 73.5382Z" fill="#2B2B39"/>
<path d="M149.885 79.6751C149.612 81.1291 148.212 82.0871 146.757 81.8151C145.303 81.5421 144.344 80.1421 144.618 78.6881C144.891 77.2331 146.291 76.2761 147.745 76.5481C149.2 76.8211 150.158 78.2211 149.885 79.6751Z" fill="#111111"/>
<path d="M144.195 81.6704C144.195 81.6704 146.762 80.2244 148.844 82.5184L144.195 81.6704Z" fill="#E69773"/>
<path d="M148.745 83.4104C148.535 83.3874 148.332 83.2904 148.178 83.1214C146.646 81.4334 144.832 82.3454 144.631 82.4564C144.197 82.6914 143.65 82.5364 143.411 82.1034C143.172 81.6714 143.323 81.1294 143.753 80.8874C144.859 80.2654 147.48 79.6794 149.509 81.9124C149.843 82.2804 149.815 82.8494 149.448 83.1834C149.249 83.3634 148.991 83.4384 148.745 83.4104Z" fill="#AF4E4A"/>
<path d="M166.516 83.9682C166.516 83.9682 168.777 83.2421 170.652 84.4691L166.516 83.9682Z" fill="#E69773"/>
<path d="M170.552 85.3633C170.416 85.3483 170.281 85.3023 170.159 85.2223C168.678 84.2513 166.804 84.8183 166.785 84.8263C166.312 84.9743 165.81 84.7093 165.659 84.2383C165.51 83.7673 165.768 83.2633 166.24 83.1123C166.349 83.0773 168.933 82.2733 171.144 83.7183C171.559 83.9893 171.676 84.5463 171.404 84.9623C171.213 85.2553 170.879 85.3993 170.552 85.3633Z" fill="#AF4E4A"/>
<path d="M141.128 89.6092C142.017 89.1502 143.103 89.4082 143.762 90.1602C144.963 91.5322 147.63 94.0252 151.75 94.9112C152.761 95.1282 153.157 96.3772 152.616 97.2582C151.424 99.1952 148.489 102.061 143.386 98.9402C137.168 95.1382 138.81 90.8052 141.128 89.6092Z" fill="white"/>
<path d="M153.013 124.887C153.013 124.887 131.089 123.88 126.692 114.467C126.692 114.467 127.544 134.117 150.688 136.964L153.013 124.887Z" fill="#AF4E4A"/>
<path d="M130.218 84.7613C130.06 86.1833 131.856 87.5493 134.228 87.8123C136.6 88.0753 138.651 87.1353 138.809 85.7133C138.967 84.2913 137.171 82.9253 134.799 82.6623C132.426 82.3993 130.375 83.3393 130.218 84.7613Z" fill="#AF4E4A"/>
<path d="M141.533 88.7701C134.186 88.7011 128.266 82.6681 128.336 75.3211C128.406 67.9751 134.438 62.0561 141.786 62.1251C149.134 62.1951 155.053 68.2271 154.983 75.5731C154.913 82.9201 148.881 88.8391 141.533 88.7701ZM141.767 64.0911C135.505 64.0311 130.361 69.0781 130.302 75.3381C130.243 81.6001 135.289 86.7431 141.552 86.8031C147.814 86.8621 152.957 81.8161 153.016 75.5541C153.076 69.2941 148.029 64.1511 141.767 64.0911Z" fill="#FDFEFF"/>
<path d="M171.98 92.9801C164.633 92.9101 158.713 86.8781 158.783 79.5301C158.853 72.1851 164.885 66.2651 172.232 66.3341C179.579 66.4031 185.499 72.4371 185.43 79.7821C185.36 87.1301 179.327 93.0491 171.98 92.9801ZM172.213 68.3011C165.951 68.2421 160.808 73.2881 160.749 79.5491C160.69 85.8111 165.736 90.9541 171.998 91.0131C178.26 91.0731 183.403 86.0261 183.463 79.7641C183.522 73.5041 178.476 68.3611 172.213 68.3011Z" fill="#FDFEFF"/>
<path d="M159.012 79.2211C157.287 76.8231 154.779 78.2531 154.496 78.4251L153.46 76.7541C154.936 75.8291 158.336 74.9121 160.609 78.0721L159.012 79.2211Z" fill="#FDFEFF"/>
<path d="M130.407 70.1469C130.003 70.1659 129.595 70.0349 129.315 69.7649C129.174 69.6599 126.94 68.0929 117.162 67.2319C116.411 67.1659 115.877 66.6049 115.971 65.9799C116.06 65.3519 116.763 64.8899 117.497 64.9669C128.749 65.9569 131.09 67.9199 131.445 68.3049C131.904 68.7999 131.785 69.5159 131.184 69.9049C130.948 70.0549 130.679 70.1339 130.407 70.1469Z" fill="#FDFEFF"/>
<path d="M169.741 59.6889C178.162 59.6889 184.989 52.8621 184.989 44.4409C184.989 36.0196 178.162 29.1929 169.741 29.1929C161.32 29.1929 154.493 36.0196 154.493 44.4409C154.493 52.8621 161.32 59.6889 169.741 59.6889Z" fill="#6059C9"/>
<path d="M149.038 50.7133C157.459 50.7133 164.286 43.8865 164.286 35.4653C164.286 27.044 157.459 20.2173 149.038 20.2173C140.617 20.2173 133.79 27.044 133.79 35.4653C133.79 43.8865 140.617 50.7133 149.038 50.7133Z" fill="#6059C9"/>
<path d="M128.052 55.2392C136.473 55.2392 143.3 48.4124 143.3 39.9912C143.3 31.5699 136.473 24.7432 128.052 24.7432C119.631 24.7432 112.804 31.5699 112.804 39.9912C112.804 48.4124 119.631 55.2392 128.052 55.2392Z" fill="#6059C9"/>
<path d="M118.649 72.8312C125.077 72.8312 130.288 67.6203 130.288 61.1922C130.288 54.7642 125.077 49.5532 118.649 49.5532C112.221 49.5532 107.01 54.7642 107.01 61.1922C107.01 67.6203 112.221 72.8312 118.649 72.8312Z" fill="#6059C9"/>
<path d="M112.503 63.0632C118.931 63.0632 124.142 57.8522 124.142 51.4242C124.142 44.9961 118.931 39.7852 112.503 39.7852C106.075 39.7852 100.864 44.9961 100.864 51.4242C100.864 57.8522 106.075 63.0632 112.503 63.0632Z" fill="#6059C9"/>
<path d="M161.059 149.669L156.025 136.734C155.834 134.224 153.327 133.042 151.746 134.716L133.286 154.02C133.135 154.178 132.887 154.193 132.718 154.055L105.352 131.681C104.373 130.871 102.744 131.157 102.22 132.231L94.5661 147.925C93.7701 149.557 94.0111 151.505 95.1801 152.894L111.257 171.99C112.691 173.693 115.575 173.894 117.314 172.412L132.483 158.403C132.811 158.1 133.325 158.126 133.621 158.46L143.212 169.31C144.264 170.877 146.294 170.76 147.214 169.078L160.256 154.159C161.346 152.911 161.653 151.195 161.059 149.669Z" fill="#750021"/>
<path d="M171.453 75.46C172.683 74.84 175.919 73.347 178.502 73.419C179.151 73.435 179.629 73.962 179.57 74.595C179.535 74.978 179.313 75.31 178.998 75.51C178.792 75.64 178.548 75.715 178.292 75.706C176.2 75.65 173.056 77.123 172.021 77.696C171.838 77.797 171.645 77.832 171.453 77.838V75.46Z" fill="#FDFEFF"/>
<path d="M136.846 172.395C136.846 174.107 135.458 175.496 133.745 175.496C132.033 175.496 130.645 174.108 130.645 172.395C130.645 170.683 132.033 169.295 133.745 169.295C135.458 169.294 136.846 170.683 136.846 172.395Z" fill="#750021"/>
<path d="M136.846 186.795C136.846 188.507 135.458 189.895 133.745 189.895C132.033 189.895 130.645 188.507 130.645 186.795C130.645 185.083 132.033 183.695 133.745 183.695C135.458 183.695 136.846 185.083 136.846 186.795Z" fill="#750021"/>
<path d="M136.846 201.195C136.846 202.907 135.458 204.296 133.745 204.296C132.033 204.296 130.645 202.908 130.645 201.195C130.645 199.483 132.033 198.095 133.745 198.095C135.458 198.095 136.846 199.483 136.846 201.195Z" fill="#750021"/>
<path d="M159.691 295.046L82.01 251.045L85.075 235.161L28.798 233.506L25.865 248.306C20.552 285.42 68.223 303.417 68.223 303.417L144.266 328.967" fill="#E69773"/>
<path d="M82.278 250.557C82.222 250.557 82.165 250.552 82.107 250.54C81.62 250.446 81.3 249.975 81.395 249.487L84.334 234.254L91.662 234.313C91.67 234.313 91.677 234.313 91.685 234.313C93.085 234.313 94.229 233.223 94.294 231.822L96.231 190.553C96.254 190.056 96.67 189.663 97.171 189.697C97.667 189.721 98.05 190.141 98.027 190.637L96.09 231.906C95.979 234.284 94.043 236.159 91.647 236.111L85.816 236.064L83.159 249.827C83.077 250.259 82.7 250.557 82.278 250.557Z" fill="#750021"/>
<path d="M62.816 258.225C62.44 258.225 62.09 257.988 61.964 257.611C61.806 257.14 62.06 256.631 62.531 256.473L81.494 250.116C81.963 249.961 82.475 250.212 82.632 250.683C82.79 251.153 82.536 251.663 82.065 251.821L63.102 258.179C63.008 258.21 62.911 258.225 62.816 258.225Z" fill="#AF4E4A"/>
<path d="M141.315 326.415C142.661 328.327 144.144 329.908 145.733 330.724L170.953 344.471C175.464 347.236 181.869 344.952 180.035 341.35C182.875 344.321 187.053 346.562 190.323 342.715C192.377 340.801 191.734 338.73 190.333 336.834C192.997 339.486 196.106 341.56 199.063 338.575C202.739 335.798 201.099 332.383 198.687 329.576C200.718 331.181 203.099 332.037 205.31 329.814C211.091 322.919 201.175 317.278 195.665 313.18C192.926 311.433 190.442 309.803 188.13 308.265C191.218 307.411 194.336 306.537 196.912 304.665C197.741 304.062 198.561 303.24 198.578 302.214C198.591 301.426 198.105 300.696 197.474 300.223C196.844 299.75 196.081 299.493 195.329 299.258C188.313 297.069 166.935 294.62 166.935 294.62C164.537 294.572 162.101 294.729 159.69 295.045" fill="#E69773"/>
<path d="M186.154 332.412C186.517 332.741 186.91 333.147 187.327 333.597C186.89 333.171 186.485 332.773 186.154 332.412Z" fill="#E69773"/>
<path opacity="0.3" d="M188.13 308.267L174.444 300.758C174.444 300.758 191.305 304.887 193.653 306.468L188.13 308.267Z" fill="#AF4E4A"/>
<path d="M190.462 324.833C190.246 324.556 190.219 324.163 190.42 323.853C190.675 323.463 191.197 323.353 191.588 323.607C192.384 324.127 199.396 328.716 200.435 329.91C200.76 330.218 200.705 330.793 200.353 331.1C200.002 331.405 199.469 331.369 199.163 331.017C198.496 330.251 193.597 326.932 190.666 325.019C190.586 324.968 190.518 324.905 190.462 324.833Z" fill="#AF4E4A"/>
<path d="M183.237 333.136C183.018 332.856 182.994 332.455 183.204 332.144C183.465 331.759 183.989 331.658 184.375 331.919L191.386 336.67C191.773 336.933 191.872 337.456 191.611 337.841C191.35 338.226 190.826 338.327 190.44 338.066L183.43 333.315C183.354 333.264 183.29 333.204 183.237 333.136Z" fill="#AF4E4A"/>
<path d="M130.939 323.285C130.939 323.285 136.167 301.538 148.613 288.631C151.633 288.426 155.617 289.603 157.825 291.817C157.825 291.817 144.538 306.092 139.259 328.14C135.757 327.672 132.981 326.041 130.939 323.285Z" fill="#2B2B39"/>
<path d="M155.587 306.515C158.674 300.496 156.297 293.113 150.278 290.026C144.259 286.939 136.877 289.316 133.79 295.335C130.703 301.355 133.08 308.737 139.099 311.824C145.117 314.911 152.5 312.535 155.587 306.515Z" fill="#2B2B39"/>
<path d="M148.711 293.081C144.385 290.863 139.062 292.577 136.843 296.902C134.625 301.228 136.339 306.551 140.664 308.77C144.99 310.988 150.313 309.274 152.532 304.948C154.75 300.623 153.037 295.3 148.711 293.081Z" fill="white"/>
</g>
<path d="M249.238 101.173C246.484 103.824 244.229 102.863 244.229 99.0409V86.7159C244.229 82.8939 241.102 79.7659 237.28 79.7659H221.509C217.687 79.7659 214.56 76.6389 214.56 72.8159V24.1019C214.56 20.2799 217.687 17.1519 221.509 17.1519H295.464C299.286 17.1519 302.413 20.2789 302.413 24.1019V72.8169C302.413 76.6389 299.286 79.7669 295.464 79.7669H278.443C274.621 79.7669 269.239 81.9329 266.485 84.5839L249.238 101.173Z" fill="#467B6C"/>
<path d="M287.308 36.8788H229.665C228.28 36.8788 227.157 35.7558 227.157 34.3708C227.157 32.9858 228.28 31.8628 229.665 31.8628H287.308C288.693 31.8628 289.816 32.9858 289.816 34.3708C289.816 35.7558 288.694 36.8788 287.308 36.8788Z" fill="white"/>
<path d="M287.308 49.3876H229.665C228.28 49.3876 227.157 48.2646 227.157 46.8796C227.157 45.4946 228.28 44.3716 229.665 44.3716H287.308C288.693 44.3716 289.816 45.4946 289.816 46.8796C289.816 48.2646 288.694 49.3876 287.308 49.3876Z" fill="white"/>
<path d="M287.308 61.8969H241.505C240.12 61.8969 238.997 60.7739 238.997 59.3889C238.997 58.0039 240.12 56.8809 241.505 56.8809H287.308C288.693 56.8809 289.816 58.0039 289.816 59.3889C289.816 60.7739 288.694 61.8969 287.308 61.8969Z" fill="white"/>
<path d="M291.188 233.055H186.729C182.993 233.055 179.718 235.55 178.724 239.151L154.66 326.383H151.689H84.6731C83.4001 326.383 82.6401 327.802 83.3471 328.862L88.8731 337.151H151.689H271.04L299.195 243.837C300.817 238.466 296.797 233.055 291.188 233.055Z" fill="#5F5F75"/>
<path d="M280.015 337.365H160.664L187.699 239.365C188.693 235.764 191.968 233.269 195.704 233.269H300.163C305.772 233.269 309.792 238.681 308.171 244.051L280.015 337.365Z" fill="#2B2B39"/>
<path d="M228.115 289.018C228.115 281.628 234.128 275.614 241.518 275.614C248.908 275.614 254.92 281.627 254.92 289.018C254.92 296.408 248.909 302.42 241.518 302.42C234.129 302.421 228.115 296.409 228.115 289.018ZM230.159 289.018C230.159 295.282 235.254 300.377 241.519 300.377C247.782 300.377 252.877 295.282 252.877 289.018C252.877 282.754 247.782 277.658 241.519 277.658C235.254 277.658 230.159 282.755 230.159 289.018Z" fill="#F6EEE3"/>
<path d="M510.839 85.4861C510.66 85.4861 510.478 85.4521 510.302 85.3811L503.793 82.7351C503.442 82.5921 503.163 82.3161 503.016 81.9671C502.869 81.6181 502.866 81.2251 503.009 80.8751L505.056 75.8431C503.904 75.0531 502.86 74.1331 501.937 73.0921L497.002 75.1721C496.277 75.4771 495.439 75.1381 495.133 74.4111L492.403 67.9381C492.256 67.5891 492.253 67.1961 492.396 66.8461C492.539 66.4951 492.815 66.2161 493.164 66.0691L497.768 64.1281C497.594 62.9181 497.552 61.6901 497.642 60.4591L493.117 58.6191C492.766 58.4761 492.486 58.2001 492.339 57.8511C492.192 57.5021 492.19 57.1091 492.332 56.7591L494.979 50.2511C495.122 49.9001 495.398 49.6211 495.747 49.4741C496.095 49.3271 496.488 49.3241 496.839 49.4671L501.122 51.2101C502.042 50.0011 503.114 48.9271 504.325 48.0001L502.384 43.3991C502.078 42.6721 502.418 41.8361 503.144 41.5291L509.618 38.7981C509.967 38.6511 510.359 38.6481 510.71 38.7911C511.06 38.9341 511.34 39.2101 511.487 39.5581L513.567 44.4931C514.382 44.4341 515.202 44.4331 516.018 44.4921L518.17 39.1991C518.467 38.4691 519.299 38.1181 520.03 38.4141L526.538 41.0601C526.889 41.2031 527.168 41.4791 527.316 41.8281C527.463 42.1771 527.466 42.5701 527.323 42.9201L525.268 47.9711C526.477 48.8921 527.551 49.9641 528.478 51.1751L533.08 49.2341C533.429 49.0871 533.821 49.0841 534.172 49.2271C534.523 49.3701 534.802 49.6461 534.95 49.9941L537.68 56.4681C537.986 57.1941 537.646 58.0311 536.919 58.3381L531.986 60.4181C532.069 61.5331 532.044 62.6421 531.913 63.7341L536.965 65.7881C537.695 66.0851 538.047 66.9171 537.75 67.6471L535.104 74.1551C534.962 74.5061 534.685 74.7851 534.337 74.9321C533.987 75.0791 533.594 75.0811 533.244 74.9391L527.951 72.7851C527.423 73.4111 526.851 73.9971 526.24 74.5401L528.321 79.4731C528.627 80.1991 528.287 81.0361 527.561 81.3431L521.088 84.0741C520.738 84.2211 520.346 84.2231 519.995 84.0811C519.645 83.9381 519.365 83.6621 519.218 83.3141L517.277 78.7101C516.351 78.8441 515.417 78.9011 514.483 78.8821L512.16 84.5941C511.936 85.1501 511.403 85.4851 510.839 85.4861ZM506.191 80.6271L510.055 82.1981L512.222 76.8691C512.457 76.2911 513.031 75.9321 513.662 75.9851C515.064 76.1011 516.472 76.0091 517.847 75.7111C518.522 75.5651 519.198 75.9191 519.465 76.5511L521.294 80.8911L525.138 79.2701L523.201 74.6771C522.95 74.0821 523.13 73.3931 523.639 72.9961C524.664 72.1981 525.576 71.2611 526.351 70.2131C526.738 69.6881 527.432 69.4931 528.037 69.7391L533 71.7581L534.571 67.8941L529.795 65.9521C529.164 65.6951 528.802 65.0291 528.931 64.3601C529.222 62.8481 529.261 61.2821 529.045 59.7071C528.958 59.0671 529.31 58.4491 529.904 58.1981L534.497 56.2611L532.875 52.4171L528.536 54.2471C527.904 54.5141 527.171 54.2921 526.792 53.7201C525.717 52.0971 524.353 50.7351 522.737 49.6711C522.168 49.2961 521.943 48.5721 522.2 47.9411L524.143 43.1651L520.279 41.5941L518.261 46.5571C518.015 47.1621 517.385 47.5211 516.744 47.4331C515.456 47.2551 514.149 47.2551 512.859 47.4331C512.22 47.5181 511.6 47.1691 511.35 46.5741L509.414 41.9801L505.57 43.6011L507.4 47.9401C507.667 48.5721 507.445 49.3051 506.873 49.6841C505.25 50.7601 503.887 52.1241 502.824 53.7391C502.449 54.3081 501.723 54.5321 501.094 54.2761L497.086 52.6451L495.514 56.5091L499.71 58.2161C500.314 58.4621 500.675 59.0861 500.586 59.7321C500.356 61.4051 500.418 63.0741 500.768 64.6961C500.913 65.3671 500.56 66.0461 499.927 66.3121L495.587 68.1421L497.208 71.9851L501.803 70.0481C502.396 69.7971 503.087 69.9771 503.483 70.4861C504.599 71.9191 505.967 73.1161 507.548 74.0421C508.16 74.4001 508.416 75.1541 508.149 75.8111L506.191 80.6271ZM514.825 69.5301C511.755 69.5301 508.832 67.7231 507.566 64.7211C505.881 60.7251 507.761 56.1021 511.757 54.4161C515.754 52.7301 520.377 54.6101 522.063 58.6081C522.878 60.5421 522.891 62.6801 522.099 64.6271C521.307 66.5751 519.805 68.0971 517.871 68.9131C516.877 69.3321 515.843 69.5301 514.825 69.5301ZM514.809 56.6521C514.16 56.6521 513.502 56.7791 512.868 57.0461C510.321 58.1211 509.123 61.0661 510.197 63.6121C511.271 66.1581 514.217 67.3561 516.763 66.2821C517.994 65.7631 518.951 64.7941 519.456 63.5511C519.961 62.3091 519.953 60.9471 519.434 59.7161C518.627 57.8041 516.764 56.6521 514.809 56.6521Z" fill="#CCC0B2"/>
<path d="M274.225 426.217C262.996 426.217 253.86 417.082 253.86 405.852C253.86 394.623 262.996 385.487 274.225 385.487C285.454 385.487 294.59 394.622 294.59 405.852C294.59 417.081 285.454 426.217 274.225 426.217ZM274.225 388.342C264.57 388.342 256.714 396.197 256.714 405.852C256.714 415.507 264.569 423.363 274.225 423.363C283.88 423.363 291.736 415.508 291.736 405.852C291.736 396.197 283.88 388.342 274.225 388.342Z" fill="#CCC0B2"/>
<path d="M268.674 415.412C268.648 415.412 268.622 415.411 268.596 415.41C268.191 415.388 267.815 415.194 267.561 414.878L263.867 410.274C263.374 409.659 263.472 408.761 264.087 408.268C264.702 407.775 265.6 407.874 266.093 408.488L268.791 411.851L283.93 396.711C284.488 396.154 285.391 396.154 285.948 396.711C286.505 397.268 286.505 398.172 285.948 398.729L269.683 414.994C269.415 415.262 269.052 415.412 268.674 415.412Z" fill="#CCC0B2"/>
<path d="M73.668 456.795L59.124 447.842H24.324C21.057 447.842 18.4 445.184 18.4 441.917V416.672C18.4 413.405 21.058 410.748 24.324 410.748H65.635C68.902 410.748 71.559 413.406 71.559 416.672V442.291L75.772 455.134C75.959 455.703 75.77 456.328 75.3 456.699C75.042 456.902 74.729 457.006 74.416 457.006C74.158 457.006 73.898 456.936 73.668 456.795ZM24.324 413.602C22.631 413.602 21.254 414.98 21.254 416.672V441.917C21.254 443.61 22.631 444.987 24.324 444.987H59.528C59.792 444.987 60.051 445.06 60.276 445.199L71.845 452.32L68.776 442.963C68.729 442.82 68.705 442.669 68.705 442.518V416.671C68.705 414.978 67.328 413.601 65.635 413.601H24.324V413.602Z" fill="#CCC0B2"/>
<path d="M53.092 429.618C53.092 431.496 54.615 433.019 56.494 433.019C58.373 433.019 59.895 431.496 59.895 429.618C59.895 427.739 58.372 426.217 56.494 426.217C54.615 426.217 53.092 427.739 53.092 429.618Z" fill="#CCC0B2"/>
<path d="M40.795 429.618C40.795 431.496 42.318 433.019 44.196 433.019C46.074 433.019 47.597 431.496 47.597 429.618C47.597 427.739 46.074 426.217 44.196 426.217C42.317 426.217 40.795 427.739 40.795 429.618Z" fill="#CCC0B2"/>
<path d="M28.4971 429.618C28.4971 431.496 30.0201 433.019 31.8981 433.019C33.7761 433.019 35.2991 431.496 35.2991 429.618C35.2991 427.739 33.7761 426.217 31.8981 426.217C30.0201 426.217 28.4971 427.739 28.4971 429.618Z" fill="#CCC0B2"/>
</svg>
