<svg width="16" height="16" viewBox="0 0 16 16" fill="none" xmlns="http://www.w3.org/2000/svg">
   <path d="M6.1875 8C6.1875 8.46413 6.37187 8.90925 6.70006 9.23744C7.02825 9.56563 7.47337 9.75 7.9375 9.75C8.40163 9.75 8.84675 9.56563 9.17494 9.23744C9.50312 8.90925 9.6875 8.46413 9.6875 8C9.6875 7.53587 9.50312 7.09075 9.17494 6.76256C8.84675 6.43437 8.40163 6.25 7.9375 6.25C7.47337 6.25 7.02825 6.43437 6.70006 6.76256C6.37187 7.09075 6.1875 7.53587 6.1875 8ZM14.7219 7.59688C13.2406 4.47656 11.0016 2.90625 8 2.90625C4.99687 2.90625 2.75937 4.47656 1.27812 7.59844C1.21871 7.72425 1.1879 7.86165 1.1879 8.00078C1.1879 8.13991 1.21871 8.27732 1.27812 8.40312C2.75937 11.5234 4.99844 13.0938 8 13.0938C11.0031 13.0938 13.2406 11.5234 14.7219 8.40156C14.8422 8.14844 14.8422 7.85469 14.7219 7.59688ZM7.9375 10.75C6.41875 10.75 5.1875 9.51875 5.1875 8C5.1875 6.48125 6.41875 5.25 7.9375 5.25C9.45625 5.25 10.6875 6.48125 10.6875 8C10.6875 9.51875 9.45625 10.75 7.9375 10.75Z" fill="#808080"/>
   </svg>
   